<?xml version="1.0" encoding="UTF-8"?>
<svg id="Lag_2" data-name="Lag 2" xmlns="http://www.w3.org/2000/svg" viewBox="0 0 177.33 154.02">
  <defs>
    <style>
      .cls-1, .cls-2, .cls-3 {
        stroke-width: 0px;
      }

      .cls-2 {
        fill: #7f7f7f;
      }

      .cls-3 {
        fill: #fff;
      }
    </style>
  </defs>
  <g id="Layer_3" data-name="Layer 3">
    <g id="clone">
      <g>
        <path class="cls-2" d="m0,144.31h3.99v.8H.96v2.46h2.81v.79H.96v3.36h-.96v-7.42Z"/>
        <path class="cls-2" d="m9.86,149.02c0,1.97-1.36,2.83-2.65,2.83-1.44,0-2.55-1.06-2.55-2.74,0-1.78,1.17-2.83,2.64-2.83s2.56,1.11,2.56,2.74Zm-4.22.05c0,1.17.67,2.05,1.62,2.05s1.62-.87,1.62-2.07c0-.9-.45-2.05-1.6-2.05s-1.64,1.06-1.64,2.07Z"/>
        <path class="cls-2" d="m12.3,144.87v1.53h1.39v.74h-1.39v2.87c0,.66.19,1.03.73,1.03.25,0,.44-.03.56-.07l.04.73c-.19.08-.48.13-.86.13-.45,0-.81-.14-1.05-.41-.27-.29-.37-.76-.37-1.39v-2.9h-.82v-.74h.82v-1.28l.95-.25Z"/>
        <path class="cls-2" d="m19.58,149.02c0,1.97-1.36,2.83-2.65,2.83-1.44,0-2.55-1.06-2.55-2.74,0-1.78,1.17-2.83,2.64-2.83s2.56,1.11,2.56,2.74Zm-4.22.05c0,1.17.67,2.05,1.62,2.05s1.62-.87,1.62-2.07c0-.9-.45-2.05-1.6-2.05s-1.64,1.06-1.64,2.07Z"/>
        <path class="cls-2" d="m25.44,146.4c-.02.39-.04.81-.04,1.46v3.09c0,1.22-.24,1.97-.76,2.43-.52.48-1.27.64-1.94.64s-1.34-.15-1.77-.44l.24-.74c.35.22.9.42,1.56.42.99,0,1.72-.52,1.72-1.86v-.59h-.02c-.3.5-.87.89-1.69.89-1.32,0-2.27-1.12-2.27-2.6,0-1.8,1.18-2.83,2.4-2.83.92,0,1.43.48,1.66.92h.02l.04-.8h.85Zm-1,2.1c0-.17-.01-.31-.06-.44-.18-.56-.65-1.02-1.35-1.02-.92,0-1.58.78-1.58,2.01,0,1.05.53,1.92,1.57,1.92.59,0,1.13-.37,1.34-.99.06-.17.08-.35.08-.52v-.96Z"/>
        <path class="cls-2" d="m26.99,148.06c0-.63-.01-1.17-.04-1.66h.85l.03,1.05h.04c.24-.72.83-1.17,1.47-1.17.11,0,.19.01.28.03v.91c-.1-.02-.2-.03-.33-.03-.68,0-1.17.52-1.3,1.24-.02.13-.04.29-.04.45v2.84h-.96v-3.66Z"/>
        <path class="cls-2" d="m33.54,151.72l-.08-.67h-.03c-.3.42-.87.79-1.63.79-1.08,0-1.63-.76-1.63-1.53,0-1.29,1.14-1.99,3.2-1.98v-.11c0-.44-.12-1.23-1.21-1.23-.5,0-1.01.15-1.39.4l-.22-.64c.44-.29,1.08-.47,1.75-.47,1.63,0,2.02,1.11,2.02,2.18v1.99c0,.46.02.91.09,1.28h-.88Zm-.14-2.72c-1.06-.02-2.26.17-2.26,1.2,0,.63.42.92.91.92.69,0,1.13-.44,1.29-.89.03-.1.05-.21.05-.31v-.92Z"/>
        <path class="cls-2" d="m36.05,151.72v-4.59h-.75v-.74h.75v-.25c0-.75.17-1.43.62-1.86.36-.35.85-.5,1.3-.5.34,0,.64.08.83.15l-.13.75c-.14-.07-.34-.12-.62-.12-.83,0-1.03.73-1.03,1.54v.29h1.29v.74h-1.29v4.59h-.96Z"/>
        <path class="cls-2" d="m43.76,151.15c0-.41.27-.69.66-.69s.65.29.65.69-.25.69-.66.69c-.39,0-.65-.3-.65-.69Z"/>
        <path class="cls-2" d="m49.97,151.72l-2.42-7.42h1.03l1.16,3.65c.32,1,.59,1.9.79,2.77h.02c.21-.86.52-1.79.85-2.76l1.25-3.66h1.02l-2.65,7.42h-1.06Z"/>
        <path class="cls-2" d="m55.41,144.9c.01.33-.23.59-.62.59-.34,0-.58-.26-.58-.59s.25-.6.6-.6.59.26.59.6Zm-1.08,6.82v-5.33h.97v5.33h-.97Z"/>
        <path class="cls-2" d="m56.83,150.73c.29.19.79.38,1.28.38.7,0,1.03-.35,1.03-.79s-.27-.71-.99-.98c-.96-.34-1.41-.87-1.41-1.51,0-.86.69-1.56,1.84-1.56.54,0,1.01.15,1.31.33l-.24.7c-.21-.13-.59-.31-1.09-.31-.57,0-.89.33-.89.73,0,.44.32.64,1.01.9.92.35,1.4.81,1.4,1.61,0,.94-.73,1.6-1.99,1.6-.58,0-1.12-.14-1.5-.36l.24-.74Z"/>
        <path class="cls-2" d="m65.83,150.27c0,.55.01,1.03.04,1.45h-.86l-.06-.87h-.02c-.25.43-.81.99-1.76.99-.84,0-1.84-.46-1.84-2.33v-3.11h.97v2.95c0,1.01.31,1.69,1.19,1.69.65,0,1.1-.45,1.28-.88.06-.14.09-.32.09-.5v-3.27h.97v3.87Z"/>
        <path class="cls-2" d="m68.02,149.24c.02,1.31.86,1.85,1.83,1.85.69,0,1.11-.12,1.47-.28l.17.69c-.34.15-.92.33-1.77.33-1.64,0-2.62-1.08-2.62-2.68s.95-2.87,2.5-2.87c1.74,0,2.2,1.53,2.2,2.51,0,.2-.02.35-.03.45h-3.74Zm2.84-.69c.01-.62-.25-1.57-1.34-1.57-.98,0-1.41.9-1.49,1.57h2.83Z"/>
        <path class="cls-2" d="m73.05,143.91h.97v7.81h-.97v-7.81Z"/>
        <path class="cls-2" d="m78.04,151.72c.02-.36.04-.9.04-1.38v-6.44h.96v3.34h.02c.34-.59.96-.98,1.81-.98,1.32,0,2.26,1.1,2.25,2.72,0,1.9-1.2,2.85-2.39,2.85-.77,0-1.39-.3-1.78-1h-.03l-.04.88h-.84Zm1-2.13c0,.12.02.24.04.35.19.67.75,1.13,1.45,1.13,1.01,0,1.62-.83,1.62-2.05,0-1.07-.55-1.98-1.58-1.98-.66,0-1.28.45-1.47,1.19-.02.11-.05.24-.05.4v.96Z"/>
        <path class="cls-2" d="m84.4,148.06c0-.63-.01-1.17-.04-1.66h.85l.03,1.05h.04c.24-.72.83-1.17,1.47-1.17.11,0,.19.01.28.03v.91c-.1-.02-.2-.03-.33-.03-.68,0-1.17.52-1.3,1.24-.02.13-.04.29-.04.45v2.84h-.96v-3.66Z"/>
        <path class="cls-2" d="m90.95,151.72l-.08-.67h-.03c-.3.42-.87.79-1.63.79-1.08,0-1.63-.76-1.63-1.53,0-1.29,1.14-1.99,3.2-1.98v-.11c0-.44-.12-1.23-1.21-1.23-.5,0-1.01.15-1.39.4l-.22-.64c.44-.29,1.08-.47,1.75-.47,1.63,0,2.02,1.11,2.02,2.18v1.99c0,.46.02.91.09,1.28h-.88Zm-.14-2.72c-1.06-.02-2.25.17-2.25,1.2,0,.63.42.92.91.92.69,0,1.13-.44,1.29-.89.03-.1.05-.21.05-.31v-.92Z"/>
        <path class="cls-2" d="m93.36,147.84c0-.55-.01-1-.04-1.44h.86l.05.88h.02c.26-.51.88-1,1.76-1,.74,0,1.88.44,1.88,2.27v3.18h-.97v-3.07c0-.86-.32-1.57-1.23-1.57-.64,0-1.13.45-1.3.99-.04.12-.07.29-.07.45v3.2h-.97v-3.88Z"/>
        <path class="cls-2" d="m104.11,143.91v6.44c0,.47.01,1.01.04,1.38h-.87l-.04-.92h-.02c-.3.59-.95,1.04-1.82,1.04-1.29,0-2.28-1.09-2.28-2.71-.01-1.77,1.09-2.86,2.39-2.86.81,0,1.36.38,1.61.81h.02v-3.18h.97Zm-.97,4.65c0-.12-.01-.29-.04-.41-.14-.62-.67-1.12-1.4-1.12-1,0-1.59.88-1.59,2.06,0,1.08.53,1.97,1.57,1.97.65,0,1.24-.43,1.42-1.16.03-.13.04-.26.04-.42v-.92Z"/>
        <path class="cls-2" d="m106.85,144.9c.01.33-.23.59-.62.59-.34,0-.58-.26-.58-.59s.25-.6.61-.6.59.26.59.6Zm-1.08,6.82v-5.33h.97v5.33h-.97Z"/>
        <path class="cls-2" d="m108.4,147.84c0-.55-.01-1-.04-1.44h.86l.05.88h.02c.26-.51.88-1,1.76-1,.74,0,1.88.44,1.88,2.27v3.18h-.97v-3.07c0-.86-.32-1.57-1.23-1.57-.64,0-1.13.45-1.3.99-.04.12-.07.29-.07.45v3.2h-.97v-3.88Z"/>
        <path class="cls-2" d="m119.15,146.4c-.02.39-.04.81-.04,1.46v3.09c0,1.22-.24,1.97-.76,2.43-.52.48-1.27.64-1.94.64s-1.34-.15-1.77-.44l.24-.74c.35.22.9.42,1.56.42.99,0,1.72-.52,1.72-1.86v-.59h-.02c-.3.5-.87.89-1.69.89-1.32,0-2.27-1.12-2.27-2.6,0-1.8,1.18-2.83,2.4-2.83.92,0,1.43.48,1.66.92h.02l.04-.8h.85Zm-1,2.1c0-.17-.01-.31-.05-.44-.18-.56-.65-1.02-1.35-1.02-.92,0-1.58.78-1.58,2.01,0,1.05.53,1.92,1.57,1.92.59,0,1.13-.37,1.34-.99.05-.17.08-.35.08-.52v-.96Z"/>
        <path class="cls-2" d="m122.92,151.15c0-.41.27-.69.66-.69s.65.29.65.69-.25.69-.66.69c-.38,0-.65-.3-.65-.69Z"/>
        <path class="cls-2" d="m128.26,146.4l.7,2.71c.15.59.3,1.14.4,1.69h.03c.12-.54.3-1.11.47-1.68l.87-2.72h.81l.83,2.66c.2.64.35,1.2.47,1.74h.03c.09-.54.23-1.1.41-1.73l.76-2.67h.96l-1.72,5.33h-.88l-.81-2.54c-.19-.59-.34-1.12-.47-1.75h-.02c-.13.64-.3,1.19-.48,1.76l-.86,2.53h-.88l-1.61-5.33h.99Z"/>
        <path class="cls-2" d="m136.45,149.24c.02,1.31.86,1.85,1.83,1.85.69,0,1.11-.12,1.47-.28l.17.69c-.34.15-.92.33-1.77.33-1.64,0-2.62-1.08-2.62-2.68s.95-2.87,2.5-2.87c1.74,0,2.2,1.53,2.2,2.51,0,.2-.02.35-.03.45h-3.74Zm2.84-.69c.01-.62-.25-1.57-1.34-1.57-.98,0-1.41.9-1.49,1.57h2.83Z"/>
        <path class="cls-2" d="m141.43,151.72c.02-.36.04-.9.04-1.38v-6.44h.96v3.34h.02c.34-.59.96-.98,1.82-.98,1.32,0,2.25,1.1,2.24,2.72,0,1.9-1.2,2.85-2.39,2.85-.77,0-1.39-.3-1.78-1h-.03l-.04.88h-.84Zm1-2.13c0,.12.02.24.04.35.19.67.75,1.13,1.45,1.13,1.01,0,1.62-.83,1.62-2.05,0-1.07-.55-1.98-1.58-1.98-.66,0-1.28.45-1.47,1.19-.02.11-.06.24-.06.4v.96Z"/>
        <path class="cls-2" d="m152.39,143.91v6.44c0,.47.01,1.01.04,1.38h-.87l-.04-.92h-.02c-.3.59-.95,1.04-1.82,1.04-1.29,0-2.28-1.09-2.28-2.71-.01-1.77,1.09-2.86,2.39-2.86.81,0,1.36.38,1.61.81h.02v-3.18h.97Zm-.97,4.65c0-.12-.01-.29-.04-.41-.14-.62-.67-1.12-1.4-1.12-1,0-1.59.88-1.59,2.06,0,1.08.53,1.97,1.57,1.97.65,0,1.24-.43,1.42-1.16.03-.13.04-.26.04-.42v-.92Z"/>
        <path class="cls-2" d="m154.59,149.24c.02,1.31.86,1.85,1.83,1.85.69,0,1.11-.12,1.47-.28l.17.69c-.34.15-.92.33-1.77.33-1.64,0-2.62-1.08-2.62-2.68s.95-2.87,2.5-2.87c1.74,0,2.2,1.53,2.2,2.51,0,.2-.02.35-.03.45h-3.74Zm2.84-.69c.01-.62-.25-1.57-1.34-1.57-.98,0-1.41.9-1.49,1.57h2.83Z"/>
        <path class="cls-2" d="m159.49,150.73c.29.19.79.38,1.28.38.7,0,1.03-.35,1.03-.79s-.28-.71-.99-.98c-.96-.34-1.41-.87-1.41-1.51,0-.86.69-1.56,1.84-1.56.54,0,1.01.15,1.31.33l-.24.7c-.21-.13-.59-.31-1.09-.31-.57,0-.89.33-.89.73,0,.44.32.64,1.01.9.92.35,1.4.81,1.4,1.61,0,.94-.73,1.6-1.99,1.6-.58,0-1.12-.14-1.5-.36l.24-.74Z"/>
        <path class="cls-2" d="m165.11,144.9c.01.33-.23.59-.62.59-.34,0-.58-.26-.58-.59s.25-.6.61-.6.59.26.59.6Zm-1.08,6.82v-5.33h.97v5.33h-.97Z"/>
        <path class="cls-2" d="m171.25,146.4c-.02.39-.04.81-.04,1.46v3.09c0,1.22-.24,1.97-.76,2.43-.52.48-1.27.64-1.94.64s-1.34-.15-1.77-.44l.24-.74c.35.22.9.42,1.56.42.99,0,1.72-.52,1.72-1.86v-.59h-.02c-.3.5-.87.89-1.69.89-1.32,0-2.27-1.12-2.27-2.6,0-1.8,1.18-2.83,2.4-2.83.92,0,1.43.48,1.66.92h.02l.04-.8h.85Zm-1,2.1c0-.17-.01-.31-.05-.44-.18-.56-.65-1.02-1.35-1.02-.92,0-1.58.78-1.58,2.01,0,1.05.53,1.92,1.57,1.92.59,0,1.13-.37,1.34-.99.05-.17.08-.35.08-.52v-.96Z"/>
        <path class="cls-2" d="m172.79,147.84c0-.55-.01-1-.04-1.44h.86l.05.88h.02c.26-.51.88-1,1.76-1,.74,0,1.88.44,1.88,2.27v3.18h-.97v-3.07c0-.86-.32-1.57-1.23-1.57-.64,0-1.13.45-1.3.99-.04.12-.07.29-.07.45v3.2h-.97v-3.88Z"/>
      </g>
      <path class="cls-1" d="m1.01,72.09c3.62,9.18,23.17,52.87,25.68,58.49.17.38.53.62.94.64.53.03,1.29.05,2.03.01.43-.02.81-.28.97-.68,2.46-6.12,17.89-49.88,20.92-58.53.24-.69-.25-1.41-.98-1.45-1.04-.05-2.06-.08-2.96-.04-.46.02-.87.33-1,.78-1.4,4.57-1.61,5.65-2.01,6.73-2.3,7.37-12.97,44.04-13.54,46.45-.33.06-.56.07-.74.07-.41,0-.77-.25-.95-.61-3.15-6.52-21.12-46.8-23.57-52.64-.16-.39-.54-.65-.96-.66-1.02-.03-2.03-.04-2.82-.04s-1.29.77-1.01,1.49Z"/>
      <path class="cls-1" d="m56.98,89.31c.92,0,2.15-.01,3.05-.01.6,0,1.09.49,1.09,1.09,0,5.91,0,33.91-.01,39.78,0,.6-.49,1.08-1.09,1.09-.91,0-2.15,0-3.04,0-.6,0-1.09-.48-1.09-1.08,0-5.92,0-33.9,0-39.79,0-.6.49-1.08,1.09-1.08Z"/>
      <path class="cls-1" d="m9.11,78.89c2-.36,2.95-.59,3.92-.81.07-.02.15-.03.22-.03,2.45-.05,27.45-.91,31.34-.02l-.23.73s-24.52.15-26.03.22c-2.44-.04-3.71-.09-4.25-.07-2.17-.05-4.97-.03-4.97-.03h0"/>
      <path class="cls-1" d="m48.91,79.54c1.78-.03,3.06.04,3.75.02.19,0,.37.05.54.13,1.1.56,3.15,1.23,4.21,2.85.34,1.44.69,2.53.74,2.92,0,0,.37-.02.73,0-.02-1.93-.12-2.55.78-2.96.73-.76.74-1.34,1.44-1.46,1.98-.04,7.72-.04,8.31-.04,0-.67,0-.85,0-.85l-6.87.04.05-.83c.02-.37-.14-.72-.44-.94-.46-.35-1.16-.85-1.56-1.08-.17-.1-.31-.25-.41-.42-.45-.83-1.32-2.22-1.33-3.35-.48-.02-.53-.07-.74,0-.25,1.31-2.46,5.44-5.12,5.19-.9.02-3.8.03-3.8.03l-.27.76"/>
      <path class="cls-1" d="m70.52,70.5c.87,0,1.63,0,2.24,0s1.08.48,1.08,1.08c.05,7.54,0,51.09-.01,58.58,0,.6-.48,1.08-1.09,1.08-.77,0-1.66.02-2.36.03-.6,0-1.1-.47-1.1-1.08-.04-8.01.12-51.21.15-58.61,0-.6.49-1.08,1.09-1.09Z"/>
      <path class="cls-1" d="m79.94,89.28c1.23,0,1.79,0,2.28,0,.44,0,.83.27,1,.68,1.92,4.8,11.88,30.11,14.79,36.78.36.83,1.54.89,1.96.08,3.3-6.32,9.67-31.72,11.23-36.76.14-.46.56-.76,1.04-.76,1.12,0,1.93-.06,2.64-.07.78-.02,1.34.76,1.05,1.49-2.67,6.79-13.56,34.94-15.72,39.88-.17.4-.56.66-.99.66-1.69,0-3.14-.06-4.19-.05-.47,0-.89-.27-1.05-.72-2.06-5.76-12.5-33.08-15.05-39.73-.27-.71.25-1.47,1.02-1.48Z"/>
      <path class="cls-1" d="m123.59,95.07c2.02-2.7,8.11-9.75,20.62-6.43.04,0,.07.02.11.03,5.92,2.14,9.79,2.83,12.66,11.06.03.09.05.18.06.28.19,2.25.1,24.96,0,30.19,0,.59-.48,1.06-1.07,1.07-.95.01-2.11.03-2.97.02-.6,0-1.08-.48-1.09-1.07-.02-2.11-.18-5.23-.1-5.75-.73-.03-.95,0-1.18.05-.19.04-.37.12-.51.24-1.87,1.62-6.43,5.63-11.77,7.08-1.84.57-12.09,2.65-17.2-5.1-.71-.99-4.79-9.48,4.34-16.42.06-.05.13-.09.2-.12,1.19-.59,5.27-3.95,15.67-5.42.04,0,.07-.01.11-.02,4.88-1.32,8.62-1.05,10.15-4.04.07-.13.1-.27.12-.41.28-3.01.5-8.18-7.43-10.31-.03,0-.07-.02-.1-.02-2.82-.52-5.68-1.31-8.22-.04-2.1.56-4.85,1.51-8.66,8.81-.09.17-.22.32-.38.42-1.24.78-4.34,2.03-3.57-3.58.03-.18.09-.36.21-.51Z"/>
      <path class="cls-1" d="m68.69,80.15c-1.02-1.43-17.4-20.28-19.53-28.27-.03-.12-.03-.23-.03-.35,0-1.67-2.05-7.78,5.18-10.35.1-.03.2-.05.3-.06,2.45-.18,4.92-1.24,12.6,2.47,2.03.98,4.85,2.64,6.66,3.33.71.27,1.46-.26,1.47-1.01.02-1.93.06-3.91,0-4.61,0-.08-.02-.15-.04-.22-1.89-6.55-7.46-5.35-11.89-11.03-.03-.03-.05-.06-.07-.1-.39-.61-3.05-4.45,2.33-10.37.02-.02.04-.04.06-.07.96-.92,9.65-8.49,10.6-15.6.17-.88.28-1.92.35-2.88s1.34-1.4,1.96-.6c0,0,0,0,0,0,.69.86.7.88,1.19,1.5.02.02.03.04.04.06,2.63,3.95,11.09,12.99,11.66,18.51.45,2.06.4,5.17-1.96,9.09-1.82,3.14-4.07,4.98-6.98,7.36,0,0-1.62,1.43-2.85,1.98-.38.17-.61.56-.61.97-.01,1.3-.02,3.28-.01,4.86,0,.94,1.11,1.44,1.81.82,3.14-2.8,9.82-7.66,17.57-2.85.08.05.15.11.22.18,1.27,1.28,6.05,3.42,2.74,14.75-.35,1.03-2.62,7.83-8.08,13.68-.92.67-5.6,8.65-15.02,17.47-.19.57-1.35.52-2.19.46-.49-.04-.89-.39-.99-.87-.5-2.47-.92-9.27-.53-13.27.14-1.55,1.3-2.19,2.01-2.72,6.4-3.73,10.49-.06,14.98-1.94,1.71-.65,12.13-15.32,9.19-21.7-.57-1.24-6.66-14.21-21.67,1.52-.4,1.06-2.07,1.03-1.61-.11-.67-1.28-1.03-2.06-1.45-1.45-2.2.46-11.55-4.82-13.39-5.2-2.87-.79-6.06-2.99-9.96,0-.92,1.19-6.02,3.82.11,12.67.28.92,13.13,18.89,15.77,21.06.22.18.54.91.7,1.28.06.14.09.28.09.43v1.16s-.71,0-.71,0"/>
      <path class="cls-3" d="m76.25,75.66c-.04.11-.06.24-.06.36-.03,1.79-.03,10.57,0,10.98.04.92.65.95,1.56,0,2.28-2.12,10.11-11.01,11.68-13.1.16-.21.2-.46.2-.72,0-.14.03-.27.06-.46-.9,0-7.92.06-9.51.02-.21,0-.41.05-.59.16-1.44.86-2.8,1.19-3.34,2.77Z"/>
      <path class="cls-3" d="m132.36,129.71c2.13.05,3.54.09,6.59,0,.11,0,.22-.03.32-.06,1.6-.57,9.9-2.23,12.53-9.54.02-.05.04-.1.05-.16.49-2.07.03-13.83-.02-15.09.28-1.61-18.99-.14-23.1,6.94-.8.8-5.35,6.37-2.49,13.27.05.12.13.24.22.34,1.92,2.07,3.46,3.92,5.91,4.29Z"/>
      <path class="cls-3" d="m76.52,48.97c.41-2.05.38-7.15.34-9.05,0-.14-.03-.28-.09-.41-2.19-5.23-10.16-7.78-11.92-10.29,0,0-2.08-2.53,0-5.91,2.03-3.18,12.33-13.28,12.8-19.51-.05-1.3.73-.42,1.58,1.35.03.07.07.14.12.2,1.85,2.38,9.79,8.55,10.21,15.17.09,1.22.69,2.5.02,4.99-.01.04-.02.08-.04.12-.9,2.45-2.84,7.12-6.56,9.62-.75.51-1.76-.12-1.67-1.03.26-2.89.25-7.35.25-7.35.19-1.28-4.35-4.28-4.32,1.16.14,2.22.43,13.65.43,14.65s-1.13,6.28-1.13,6.28Z"/>
      <path class="cls-3" d="m76.52,48.85c.41-2.05.38-7.15.34-9.05,0-.14-.03-.28-.09-.41-2.19-5.23-10.16-7.78-11.92-10.29,0,0-2.08-2.53,0-5.91,2.03-3.18,12.33-13.28,12.8-19.51-.05-1.3.73-.42,1.58,1.35.03.07.07.14.12.2,1.85,2.38,9.79,8.55,10.21,15.17.09,1.22.69,2.5.02,4.99-.01.04-.02.08-.04.12-.9,2.45-2.84,7.12-6.56,9.62-.75.51-1.76-.12-1.67-1.03.26-2.89.25-7.35.25-7.35.19-1.28-4.35-4.28-4.32,1.16.14,2.22.43,13.65.43,14.65s-1.13,6.28-1.13,6.28Z"/>
      <path class="cls-3" d="m79.75,34.58c-.02-1.7,1.01-.83.88-7.26,0-.27-.1-.53-.28-.72-.61-.65-1.98-1.32-1.97-.33,0,2.08-.21,8.57.77,9,.96.21.6-.69.6-.69Z"/>
      <path class="cls-1" d="m92.18,72.83l4.93.66s.04,0,.06,0l10.48.78,8.98.73,8.29.73,7.54.76,6.66.78,6.74.78s.05,0,.07.01l3.81.7,3.58.71c.07.01.14.02.21.02h2.02v-.69l-2.16-.72s-.05-.02-.07-.02l-2.94-.76s-.06-.01-.09-.02l-4.44-.75-6.05-.73-6.71-.76-6.76-.77-8.22-.73-8.98-.74-10.58-.76s-.05,0-.07,0l-4.49-.62c-.38-.05-.76.1-1,.4l-.82,1.01Z"/>
    </g>
  </g>
</svg>