<?xml version="1.0" encoding="UTF-8"?>
<svg id="Layer_1" data-name="Layer 1" xmlns="http://www.w3.org/2000/svg" viewBox="0 0 1920 1080">
  <defs>
    <style>
      .cls-1 {
        fill: #42362d;
      }

      .cls-2 {
        fill: #c29678;
      }
    </style>
  </defs>
  <circle class="cls-1" cx="1660.33" cy="-.3" r="78"/>
  <circle class="cls-1" cx="1339.33" cy="264.7" r="151"/>
  <circle class="cls-1" cx="1387.33" cy="52.7" r="25"/>
  <circle class="cls-1" cx="1832.96" cy="142.58" r="28.63"/>
  <circle class="cls-1" cx="121.22" cy="113.32" r="100.38"/>
  <circle class="cls-1" cx="571.04" cy="-68.12" r="239.88"/>
  <circle class="cls-1" cx="309.46" cy="191.08" r="22.13"/>
  <circle class="cls-1" cx="994.22" cy="77.32" r="105.38"/>
  <circle class="cls-1" cx="767.22" cy="188.32" r="43.38"/>
  <circle class="cls-1" cx="507.72" cy="366.82" r="101.88"/>
  <circle class="cls-1" cx="922.96" cy="333.58" r="71.63"/>
  <circle class="cls-1" cx="1950.62" cy="395.41" r="212.38"/>
  <circle class="cls-1" cx="1582.46" cy="232.08" r="51.13"/>
  <circle class="cls-1" cx="145.3" cy="454.68" r="153.38"/>
  <circle class="cls-2" cx="1861.33" cy="1027.7" r="151"/>
  <circle class="cls-2" cx="1785.33" cy="726.7" r="48"/>
  <circle class="cls-2" cx="1412.46" cy="1117.08" r="89.13"/>
  <circle class="cls-2" cx="251.33" cy="1370.7" r="494"/>
  <circle class="cls-2" cx="49.46" cy="819.08" r="28.13"/>
  <circle class="cls-2" cx="221.72" cy="720.82" r="53.88"/>
  <circle class="cls-2" cx="1501.96" cy="847.58" r="87.63"/>
  <circle class="cls-2" cx="1024.05" cy="935.03" r="213.69"/>
  <circle class="cls-2" cx="707.97" cy="1010.95" r="16.26"/>
  <circle class="cls-2" cx="609.53" cy="760.01" r="94.69"/>
  <circle class="cls-2" cx="1091.59" cy="366.95" r="16.26"/>
  <circle class="cls-2" cx="704.09" cy="415.45" r="33.75"/>
  <circle class="cls-2" cx="331.09" cy="333.45" r="28.75"/>
  <circle class="cls-2" cx="1695.59" cy="247.95" r="35.25"/>
  <circle class="cls-2" cx="1582.09" cy="449.45" r="60.75"/>
  <circle class="cls-2" cx="708.59" cy="574.95" r="16.26"/>
  <circle class="cls-2" cx="1155.09" cy="591.45" r="82.75"/>
  <circle class="cls-1" cx="1633.33" cy="615.7" r="25"/>
  <circle class="cls-1" cx="951.83" cy="526.2" r="41.5"/>
  <circle class="cls-1" cx="430.96" cy="778.58" r="12.63"/>
  <circle class="cls-1" cx="466.22" cy="575.32" r="41.38"/>
  <circle class="cls-1" cx="1338.96" cy="847.58" r="12.63"/>
  <circle class="cls-1" cx="1411.96" cy="533.58" r="34.63"/>
  <circle class="cls-1" cx="1446.22" cy="686.32" r="34.38"/>
  <circle class="cls-1" cx="809.96" cy="726.58" r="12.63"/>
</svg>