<svg width="100" height="100" viewBox="0 0 100 100" fill="none" xmlns="http://www.w3.org/2000/svg">
<circle cx="50" cy="50" r="47.5" fill="#F5EFE7" stroke="white" stroke-width="5"/>
<path d="M50.0007 20.3196C53.9365 20.3196 57.7112 21.8831 60.4943 24.6662C63.2773 27.4492 64.8409 31.2239 64.8409 35.1598C64.8409 39.0956 63.2773 42.8703 60.4943 45.6534C57.7112 48.4364 53.9365 49.9999 50.0007 49.9999C46.0648 49.9999 42.2902 48.4364 39.5071 45.6534C36.724 42.8703 35.1605 39.0956 35.1605 35.1598C35.1605 31.2239 36.724 27.4492 39.5071 24.6662C42.2902 21.8831 46.0648 20.3196 50.0007 20.3196ZM50.0007 57.42C66.3991 57.42 79.681 64.061 79.681 72.2602V79.6803H20.3203V72.2602C20.3203 64.061 33.6023 57.42 50.0007 57.42Z" fill="#C29678"/>
</svg>
