<?xml version="1.0" encoding="UTF-8"?>
<svg id="Layer_2" data-name="Layer 2" xmlns="http://www.w3.org/2000/svg" viewBox="0 0 1818.27 437.96">
  <defs>
    <style>
      .cls-1 {
        fill: #c29678;
      }
    </style>
  </defs>
  <g id="Layer_3" data-name="Layer 3">
    <path class="cls-1" d="M1817.42,361.05c-7.55.89-15.1,1.75-22.65,2.55-2.14.23-4.28.45-6.43.68l.34.09c-.3-.27-.65-.17-1.01-.12-.26.04-.53.07-.79.11-.53.07-1.05.15-1.58.22-1.07.15-2.14.22-3.22.32-2.12.2-4.25.39-6.37.59-4.25.38-8.5.75-12.75,1.11-2.39.2-4.78.39-7.17.59l.95.56c-.28-.33-.62-.65-1.08-.68-.14,0-.29.04-.43.05-.26.03-.53.06-.79.1-.55.07-1.09.13-1.64.2-1.05.13-2.11.23-3.16.34-2.15.22-4.29.44-6.44.66-4.26.43-8.51.85-12.77,1.25-2.41.23-4.83.45-7.24.67l.56.16c-.27-.08-.53-.19-.81-.18-.12,0-.24.03-.37.04-.2.02-.41.04-.61.06-.45.05-.89.09-1.34.14-.89.09-1.78.18-2.68.28-1.79.18-3.57.36-5.36.54-3.57.35-7.14.7-10.72,1.03-7.11.66-14.21,1.29-21.33,1.88s-14.31,1.14-21.47,1.65-14.24.98-21.36,1.41c-7.16.43-14.33.83-21.5,1.19s-14.26.68-21.39.97-14.31.53-21.46.74-14.31.37-21.47.5-14.27.22-21.41.27-14.36.06-21.53.04-14.27-.09-21.41-.2-14.35-.25-21.53-.43-14.27-.4-21.4-.67-14.34-.56-21.51-.9-14.26-.72-21.38-1.13-14.29-.87-21.43-1.37-14.28-1.03-21.41-1.6-14.23-1.18-21.33-1.83-14.29-1.35-21.43-2.08-14.2-1.49-21.29-2.3-14.26-1.66-21.38-2.55-13.51-1.7-20.26-2.66c-6.01-.86-12.01-1.79-18-2.81-5.67-.96-11.33-1.99-16.97-3.08s-10.74-2.14-16.09-3.29-10.37-2.27-15.54-3.45-10.01-2.33-15.01-3.52-9.9-2.37-14.84-3.56-9.8-2.35-14.71-3.51-9.95-2.31-14.94-3.42-10.12-2.21-15.2-3.24-10.51-2.08-15.78-3.02-11-1.9-16.51-2.73c-5.79-.88-11.58-1.67-17.39-2.37-6.2-.75-12.41-1.41-18.62-1.97-6.6-.6-13.22-1.08-19.84-1.48s-13.17-.66-19.75-.99c-3.94-.19-7.88-.41-11.82-.59-2.39-.11-4.79-.2-7.19-.22-1.1,0-2.2,0-3.3.03-1.45.03-2.9.04-4.34.16-5,.42-10.04.23-14.89-1.12l.58.16c-3.76-1.06-7.27-2.76-10.8-4.39-1.95-.9-3.92-1.77-5.92-2.55-2.56-.99-5.18-1.82-7.84-2.52-6.2-1.63-12.64-2.52-19.04-2.87s-12.76-.14-19.06.71c-5.31.72-10.56,1.99-15.52,4.03-2.34.96-4.6,2.11-6.73,3.49-2.31,1.5-4.38,3.28-6.27,5.28-4.19,4.42-6.68,10.06-8.32,15.86s-2.31,11.96-2.97,17.99c-.7,6.42-1.3,12.85-1.26,19.31.02,3.37.24,6.75.7,10.09s1.16,6.56,2.22,9.7c.56,1.67,1.19,3.32,1.92,4.91.38.83,1.14,1.8,2.15,1.23,5.01-2.83,9.76-6.11,14.25-9.69s8.78-7.5,12.86-11.57,8.32-8.64,12.28-13.14,8.03-9.28,11.94-14.02,7.88-9.71,11.71-14.65,7.6-9.98,11.28-15.06c3.67-5.06,7.26-10.18,10.77-15.36s6.9-10.33,10.21-15.59,6.62-10.91,9.52-16.59,5.21-11.06,7.04-16.89c2.04-6.5,3.49-13.19,3.95-20,.49-7.26,0-14.55-1.74-21.63-1.36-5.5-3.62-10.72-6.63-15.51-2.74-4.37-6.24-8.26-10.3-11.43-1.93-1.51-4.01-2.84-6.21-3.93-2.52-1.26-5.19-2.18-7.92-2.85-5.49-1.35-11.22-1.38-16.79-.52-5.88.91-11.61,2.77-17.08,5.1s-10.24,4.92-15.06,7.9c-4.47,2.76-8.78,5.82-12.68,9.35s-7.59,7.64-10.29,12.28c-1.38,2.37-2.59,4.84-3.49,7.43-.4,1.15-.58,2.32-.55,3.54,0,.65.08,1.29.23,1.91.09.55.25,1.08.49,1.59.29.55.8,1.52,1.57,1.42.82-.1,1.16-.84,1.5-1.5,1.28-2.42,2.56-4.83,3.85-7.25l.32-1.02c.15-.61.22-1.23.21-1.86.04-1.04-.02-2.17-.34-3.17-.19-.61-.43-1.25-.82-1.77s-1.09-.87-1.69-.46c-.05.04-.1.06-.16.09l.57-.19c-.13.04-.24.04-.38.01l.58.16c-.15-.05-.27-.13-.39-.23l.53.49c-.09-.09-.16-.18-.22-.29l.46.77c-.03-.05-.05-.11-.08-.16l.36,1c-.02-.06-.04-.11-.05-.17l.25,1.18s-.01-.07-.02-.11l.11,1.32v-.06c-.02.44-.03.88-.05,1.33,0-.04,0-.07,0-.11l-.19,1.19s.01-.07.03-.1l-.32,1.02s.03-.07.04-.1l-.42.79s.06-.09.1-.13l-.51.51s.06-.05.1-.08l-1.16.03c.12.04.23.1.33.19l-.53-.49c.08.07.14.15.2.24l-.46-.77c.04.07.08.15.11.23l-.36-1c.02.06.04.12.05.19l-.25-1.18c.01.06.02.13.03.19l-.11-1.32s0,.09,0,.13l.05-1.33c0,.07,0,.13-.02.19l.19-1.19c-.01.06-.03.13-.04.19l.32-1.02c-.03.08-.06.16-.1.23l.42-.79c-.04.07-.09.14-.15.2l.51-.51c-.08.08-.16.14-.26.19l2.51,2.23c-.39-1.34-.73-2.7-1.02-4.07l.25,1.18c-.52-2.47-.87-4.97-1.09-7.48l.11,1.32c-.23-2.79-.29-5.6-.19-8.4l-.05,1.33c.13-3.67.51-7.33,1.08-10.96l-.19,1.19c.85-5.31,2.11-10.53,3.59-15.7.42-1.48.87-2.95,1.32-4.42l-.32,1.02c1.74-5.61,3.67-11.16,5.55-16.72,1.04-3.08,2.07-6.17,2.99-9.3s1.65-6.39,2.15-9.66c.53-3.47.65-7,.36-10.5s-.96-6.86-2.39-10.01c-1.16-2.55-2.94-5-5.38-6.46-1.12-.67-2.39-1.11-3.67-1.35-1.09-.21-2.24-.22-3.33.02-1.22.28-2.41.77-3.38,1.57s-1.74,1.71-2.33,2.79c-.79,1.46-1.36,2.96-1.73,4.59-.32,1.43-.53,2.9-.61,4.36-.18,2.95-.05,5.89.04,8.83s.19,6.11.28,9.16.19,6.11.28,9.16c.1,3.35.17,6.7.46,10.04.15,1.77.46,3.51.88,5.24.38,1.54.91,3.07,1.64,4.48,1.24,2.4,3,4.69,5.4,6.03,2.15,1.2,4.76,1.54,7.14.92s4.67-1.94,6.64-3.57c2.12-1.75,3.99-3.8,5.79-5.88,1.99-2.3,3.97-4.6,5.96-6.89,3.87-4.48,7.8-8.92,11.6-13.46s7.01-8.95,9.26-14.18c2.44-5.67,3.53-11.91,3.91-18.04s.26-12.05-.14-18.05c-.43-6.44-1.24-12.87-3.01-19.09-1.63-5.73-4.14-11.11-7.16-16.22s-6.21-9.83-9.42-14.67-6.12-9.18-9.29-13.7-6.42-8.96-9.84-13.28-6.97-8.5-10.75-12.49c-1.82-1.93-3.7-3.81-5.62-5.64-.2-.33-.47-.52-.82-.57-.29-.14-.58-.1-.86.11l-.51.51c-.36.55-.6,1.16-.74,1.81l-1.01,4.54c-.3,1.33-.48,2.68-.73,4.01-.47,2.48-1.02,4.94-1.66,7.38-.34,1.3-.72,2.6-1.11,3.88l.32-1.02c-1.33,4.28-2.97,8.45-4.93,12.49-.54,1.12-1.11,2.23-1.69,3.33l.42-.79c-2.24,4.19-4.78,8.22-7.5,12.12-2.96,4.24-6.09,8.37-9.35,12.38-3.5,4.29-7.23,8.39-10.96,12.47s-7.46,8.16-10.95,12.45-6.71,8.7-9.42,13.47c-1.56,2.73-2.98,5.56-4.01,8.54-1.16,3.32-2.01,6.81-2.16,10.33-.17,3.88.13,7.82,1.42,11.51.52,1.49,1.1,2.93,1.86,4.31s1.54,2.62,2.45,3.84c1.66,2.23,3.63,4.19,5.7,6.05s4.08,3.37,6.23,4.91c4.84,3.45,9.92,6.55,14.9,9.79,4.7,3.06,9.24,6.32,13.53,9.93.94.79,1.86,1.6,2.76,2.43l-.53-.49c2.4,2.21,4.68,4.6,6.59,7.25.53.74,1.04,1.5,1.51,2.29l-.46-.77c.81,1.36,1.5,2.78,2.05,4.26l-.36-1c.35.96.63,1.93.84,2.93l-.25-1.18c.17.79.28,1.59.35,2.4l-.11-1.32c.14,1.65.3,3.3.51,4.94.16,1.23.32,2.47.42,3.71l-.11-1.32c.07.83.11,1.66.13,2.49.01.45.01.91,0,1.36,0,.85.09,1.69.16,2.54l-.11-1.32c.04.46.04.93.03,1.39l.05-1.33c-.04,1.06-.17,2.11-.34,3.16l.19-1.19c-.23,1.42-.42,2.87-.84,4.25l.32-1.02c-.25.78-.56,1.54-.94,2.27l.42-.79c-.53.98-1.17,1.89-1.95,2.69l.51-.51c-.97.98-2.13,1.76-3.44,2.21l.57-.19c-1.69.56-3.48.49-5.18.03l.58.16c-2.37-.67-4.5-1.99-6.55-3.33s-4.28-2.79-6.46-4.12c-4.37-2.67-8.83-5.17-13.39-7.5s-9.2-4.48-13.93-6.45-9.63-3.85-14.57-5.41c-5.22-1.65-10.59-2.89-16.1-2.54s-10.64,1.95-15.64,3.9c-3.75,1.46-7.39,3.3-10.65,5.67s-6.22,5.33-8.39,8.75c-2.82,4.44-4.38,9.46-5.01,14.67-.73,6-.04,12.17,1.51,17.99,1.36,5.1,3.46,10.03,5.99,14.65s5.16,9.24,7.78,13.84,5.55,9.6,8.45,14.33,5.6,8.96,8.58,13.32,6.11,8.63,9.37,12.78,6.57,8.11,9.98,12.07,6.92,7.93,10.4,11.88,6.94,7.87,10.34,11.86,6.62,7.9,9.65,12.08,5.84,8.44,8.55,12.8c1.32,2.11,2.61,4.24,3.89,6.38l-.46-.77c3.14,5.24,6.19,10.54,9.3,15.79,1.02,1.72,2.05,3.45,3.09,5.16l-.46-.77c2.42,4.29,5.04,8.45,7.65,12.62.55.87,1.09,1.75,1.62,2.64l-.46-.77c1.07,1.79,2.12,3.63,2.85,5.59l-.36-1c.21.58.39,1.16.52,1.77l-.25-1.18c.08.38.14.77.17,1.16l-.11-1.32c.02.3.03.6.02.89l.05-1.33c-.01.31-.04.62-.09.93l.19-1.19c-.06.36-.14.71-.25,1.06l.32-1.02c-.16.51-.37,1-.62,1.47l.42-.79c-.6,1.13-1.37,2.16-2.27,3.07l.51-.51c-1.98,2-4.51,3.32-7.16,4.21l.57-.19c-4.59,1.53-9.5,1.91-14.3,2.18-2.44.14-4.89.23-7.33.37-3.04.18-6.08.5-9.11.72-7.19.52-14.39.84-21.6.97s-14.44.07-21.66-.14-14.4-.58-21.59-1.07-14.4-1.11-21.58-1.83-14.39-1.53-21.57-2.41-14.38-1.83-21.55-2.83-14.36-2.02-21.54-3.07-14.34-2.1-21.51-3.14-14.29-2.05-21.44-3.03-14.06-1.87-21.09-2.75-14.08-1.71-21.12-2.51-14.1-1.55-21.15-2.26-14.11-1.38-21.18-2.02-14.13-1.22-21.2-1.77-14.14-1.06-21.22-1.53-14.15-.9-21.23-1.28-14.16-.73-21.25-1.04-14.17-.57-21.26-.79-14.22-.41-21.32-.55-14.18-.24-21.27-.3-14.22-.08-21.33-.06-14.18.08-21.27.18-14.18.24-21.27.43-14.18.41-21.26.67-14.17.57-21.25.91-14.16.73-21.24,1.16-14.15.89-21.23,1.4-14.14,1.06-21.21,1.65-14.13,1.22-21.19,1.89-14.11,1.38-21.16,2.13-14.1,1.54-21.14,2.37-14.08,1.7-21.11,2.62-14.06,1.87-21.08,2.86-14.03,2.03-21.04,3.1-14.01,2.19-21.01,3.35-13.98,2.35-20.97,3.59-13.96,2.51-20.92,3.83-13.97,2.68-20.94,4.08c-3.34.67-6.67,1.35-10.01,2.04-.41.09-.83.17-1.24.26-.25.05-.53.1-.75.23-.34.2-.46.44-.63.73l-.31.54-1.29,2.28-2.65,4.67c-.28.4-.47.83-.58,1.3-.2.55-.31,1.12-.35,1.7-.07.66-.07,1.33,0,1.99.02.63.13,1.24.3,1.84l.36,1c.21.52.54.94.99,1.26l.58.16c.47-.06.83-.3,1.08-.71l4.37-7.7-1.08.71c7.42-1.54,14.84-3.04,22.27-4.48s14.88-2.85,22.33-4.21,14.91-2.67,22.38-3.93,14.94-2.48,22.43-3.65,14.97-2.3,22.47-3.38,15-2.11,22.51-3.1,15.02-1.93,22.55-2.82,15.05-1.74,22.58-2.55,14.99-1.55,22.49-2.26,15.09-1.38,22.63-1.99,15.1-1.19,22.66-1.72,15.11-1.01,22.68-1.44,15.13-.82,22.69-1.16,15.13-.63,22.7-.88,15.14-.45,22.71-.6,15.15-.26,22.72-.33,15.15-.08,22.72-.05,15.11.11,22.66.23,15.1.29,22.66.51,15.14.48,22.71.79,15.13.66,22.7,1.06,15.12.85,22.68,1.34,15.11,1.03,22.66,1.62,15.1,1.22,22.64,1.9,15.08,1.41,22.62,2.18,15.06,1.59,22.59,2.46,15,1.77,22.5,2.73,15.04,1.97,22.55,3.02,15.31,2.18,22.96,3.3,15.33,2.24,22.99,3.34,15.34,2.16,23.02,3.17,15.35,1.94,23.03,2.79,15.35,1.58,23.05,2.19,15.36,1.09,23.06,1.39,15.38.45,23.07.38,15.39-.33,23.07-.84c3.5-.23,6.99-.57,10.49-.82,2.55-.18,5.11-.27,7.67-.41,5.34-.28,10.71-.71,15.81-2.42,2.19-.74,4.31-1.76,6.1-3.24,2-1.66,3.69-3.79,4.66-6.22.55-1.36.87-2.82,1.02-4.28.16-1.57.11-3.22-.14-4.77-.4-2.46-1.25-4.81-2.39-7.02s-2.53-4.43-3.88-6.58c-1.61-2.57-3.23-5.13-4.78-7.73l.46.77c-1.41-2.36-2.78-4.74-4.19-7.1l.46.77c-2.38-3.98-4.71-7.99-7.06-11.99s-4.93-8.36-7.49-12.49c-2.39-3.85-4.86-7.64-7.47-11.34s-5.42-7.3-8.33-10.8-6.01-7.07-9.07-10.56-6.14-6.96-9.21-10.44-6.13-7.02-9.11-10.59-5.88-7.17-8.68-10.86-5.54-7.56-8.15-11.46-5.1-7.83-7.53-11.83c-.59-.97-1.18-1.95-1.77-2.93l.46.77c-2.55-4.27-5.03-8.58-7.48-12.91-1.22-2.16-2.43-4.32-3.64-6.48s-2.41-4.23-3.51-6.39c-1.2-2.34-2.27-4.75-3.17-7.22l.36,1c-.82-2.25-1.5-4.54-1.99-6.88l.25,1.18c-.34-1.64-.59-3.29-.73-4.95l.11,1.32c-.11-1.37-.15-2.74-.1-4.11l-.05,1.33c.05-1.3.17-2.59.38-3.88l-.19,1.19c.22-1.36.53-2.7.94-4.02l-.32,1.02c.5-1.61,1.15-3.18,1.94-4.67l-.42.79c1.27-2.38,2.89-4.54,4.77-6.46l-.51.51c3.71-3.77,8.33-6.52,13.18-8.58,1.65-.7,3.33-1.32,5.03-1.89l-.57.19c3.13-1.05,6.34-1.88,9.62-2.28s6.51-.31,9.74.23c1.83.31,3.64.74,5.43,1.24l-.58-.16c3.04.86,6.03,1.91,8.99,3s5.73,2.18,8.55,3.37c5.66,2.39,11.22,5.03,16.64,7.93s10.67,6.02,15.79,9.4c1.23.81,2.45,1.62,3.74,2.32,1.44.78,2.93,1.38,4.52,1.77,2.68.65,5.57.09,7.78-1.59,1.1-.84,2.09-1.9,2.87-3.05.83-1.23,1.52-2.6,1.98-4.02.29-.9.57-1.79.74-2.73.12-.65.23-1.29.34-1.94.18-1.06.36-2.12.49-3.19s.18-2.21.2-3.32-.06-2.12-.21-3.17l.11,1.32c.06-2.52-.12-5.03-.41-7.53-.21-1.81-.49-3.62-.64-5.44l.11,1.32c-.08-.94-.14-1.88-.28-2.81-.13-.86-.32-1.71-.51-2.55-.29-1.31-.74-2.57-1.21-3.83-.81-2.17-1.97-4.21-3.25-6.13-2.5-3.75-5.74-6.94-9.1-9.9s-7.14-5.87-10.94-8.49c-4.18-2.88-8.51-5.54-12.76-8.31-4.03-2.62-8.05-5.31-11.69-8.45-.42-.36-.83-.73-1.24-1.1l.53.49c-2.4-2.21-4.59-4.67-6.26-7.47l.46.77c-.73-1.23-1.35-2.51-1.84-3.85l.36,1c-.32-.9-.58-1.82-.78-2.75l.25,1.18c-.16-.79-.27-1.58-.34-2.39l.11,1.32c-.07-.83-.09-1.67-.06-2.5l-.05,1.33c.04-1.02.14-2.03.3-3.04l-.19,1.19c.22-1.38.55-2.74.96-4.08l-.32,1.02c.82-2.64,1.94-5.17,3.24-7.6l-.42.79c1.93-3.6,4.19-7.01,6.63-10.29s5.03-6.39,7.71-9.44,5.46-6.08,8.21-9.1,5.49-6.06,8.11-9.19,4.96-6.15,7.32-9.32c2.17-2.91,4.27-5.88,6.24-8.92s3.89-6.35,5.61-9.66c1.59-3.05,3.01-6.19,4.24-9.4,1.4-3.66,2.58-7.41,3.55-11.2.47-1.85.9-3.72,1.27-5.6.19-.98.37-1.96.54-2.94.19-1.09.4-2.16.64-3.24l.76-3.39-2.93,1.86c3.46,3.28,6.74,6.74,9.89,10.32s6.12,7.27,9,11.04,5.69,7.68,8.42,11.61,5.37,7.88,8.01,11.85,5.35,7.99,7.88,12.08c.32.52.64,1.04.95,1.56l-.46-.77c2.28,3.82,4.34,7.77,5.88,11.95l-.36-1c.96,2.62,1.7,5.31,2.28,8.04l-.25-1.18c.72,3.42,1.17,6.89,1.46,10.37l-.11-1.32c.35,4.28.51,8.58.5,12.87,0,1.19-.02,2.38-.06,3.57l.05-1.33c-.1,2.74-.32,5.49-.74,8.2l.19-1.19c-.34,2.1-.8,4.18-1.42,6.21l.32-1.02c-.69,2.24-1.59,4.39-2.69,6.46l.42-.79c-2.57,4.8-6.07,9-9.61,13.1-3.97,4.61-7.95,9.2-11.93,13.81-2.07,2.4-4.08,4.87-6.3,7.13l.51-.51c-2.24,2.26-4.79,4.42-7.84,5.46l.57-.19c-1.78.59-3.66.71-5.48.2l.58.16c-1.37-.4-2.59-1.13-3.63-2.09l.53.49c-.84-.79-1.56-1.7-2.15-2.69l.46.77c-.45-.75-.82-1.55-1.12-2.37l.36,1c-.3-.83-.53-1.67-.72-2.53l.25,1.18c-.24-1.17-.4-2.36-.5-3.55l.11,1.32c-.18-2.18-.21-4.37-.27-6.55s-.14-4.53-.21-6.79c-.14-4.55-.28-9.1-.42-13.65-.07-2.19-.19-4.39-.12-6.58l-.05,1.33c.03-.98.11-1.97.26-2.94l-.19,1.19c.11-.69.26-1.37.46-2.03l-.32,1.02c.19-.61.43-1.21.73-1.78l-.42.79c.35-.65.78-1.26,1.3-1.79l-.51.51c.75-.75,1.63-1.32,2.63-1.67l-.57.19c1.53-.51,3.18-.47,4.73-.05l-.58-.16c1.43.41,2.75,1.13,3.85,2.13l-.53-.49c.85.79,1.57,1.7,2.17,2.69l-.46-.77c.49.83.9,1.71,1.23,2.62l-.36-1c.32.89.57,1.79.77,2.71l-.25-1.18c.22,1.07.37,2.15.46,3.24l-.11-1.32c.1,1.26.13,2.52.09,3.79l.05-1.33c-.06,1.66-.23,3.32-.49,4.96l.19-1.19c-.54,3.36-1.42,6.66-2.43,9.91l.32-1.02c-1.51,4.85-3.21,9.63-4.83,14.44-1.72,5.1-3.39,10.23-4.84,15.41s-2.63,10.46-3.47,15.8-1.24,10.67-1.16,16.03c.09,5.69.79,11.39,2.2,16.91.15.6.32,1.2.49,1.8.3,1.02,1.13,2.98,2.51,2.23.31-.17.59-.48.8-.75.26-.33.45-.72.61-1.11.69-1.69.78-3.71.51-5.5-.18-1.23-.53-2.53-1.29-3.55-.21-.28-.51-.56-.8-.75-.06-.04-.13-.07-.2-.1-.51-.22-.75-.25-1.24.05s-.91,1.04-1.1,1.53c-.31.78-.48,1.62-.56,2.45-.17,1.77.04,3.73.82,5.36.57,1.18,1.9,2.6,3.29,1.65l-2.32-8.27c-1.28,2.42-2.56,4.83-3.85,7.25l3.25,6.97c.64-1.82,1.42-3.59,2.32-5.3l-.42.79c1.63-3.05,3.66-5.88,5.94-8.48.66-.75,1.35-1.48,2.05-2.2l-.51.51c3.74-3.8,7.99-7.07,12.43-10,4.7-3.1,9.64-5.89,14.74-8.28,3.01-1.41,6.1-2.67,9.25-3.73l-.57.19c3.6-1.2,7.29-2.14,11.05-2.67s7.43-.65,11.14-.25c2.08.22,4.13.62,6.15,1.18l-.58-.16c4.33,1.23,8.39,3.28,11.97,6,.98.74,1.92,1.54,2.83,2.37l-.53-.49c2.39,2.2,4.51,4.68,6.35,7.36.53.77,1.03,1.56,1.51,2.36l-.46-.77c1.52,2.54,2.79,5.22,3.81,8l-.36-1c.79,2.16,1.41,4.38,1.88,6.64l-.25-1.18c.47,2.23.79,4.49.98,6.77l-.11-1.32c.19,2.35.24,4.71.17,7.07l.05-1.33c-.1,2.87-.39,5.72-.83,8.56l.19-1.19c-.61,3.79-1.5,7.53-2.64,11.19l.32-1.02c-1.65,5.28-3.78,10.4-6.23,15.37-.69,1.4-1.41,2.8-2.14,4.18l.42-.79c-1.9,3.56-3.93,7.05-6.04,10.49s-4.3,6.84-6.51,10.23-4.55,6.88-6.87,10.28-4.69,6.78-7.09,10.14-4.8,6.65-7.26,9.94-4.96,6.58-7.5,9.84-5.1,6.48-7.7,9.68-5.21,6.34-7.86,9.47-5.16,6.04-7.8,9.01-5.09,5.65-7.72,8.39c-.65.68-1.31,1.35-1.97,2.02l.51-.51c-3.32,3.37-6.75,6.63-10.34,9.71s-7.3,5.96-11.2,8.59c-2.21,1.49-4.47,2.89-6.79,4.2l2.15,1.23c-.46-1-.87-2.01-1.25-3.04l.36,1c-.7-1.94-1.26-3.94-1.68-5.96l.25,1.18c-.46-2.21-.77-4.45-.95-6.69l.11,1.32c-.25-3.09-.28-6.19-.18-9.28l-.05,1.33c.21-6.17.9-12.34,1.64-18.47.2-1.66.42-3.31.68-4.96l-.19,1.19c.47-2.96,1.08-5.91,1.97-8.78l-.32,1.02c.7-2.23,1.56-4.41,2.65-6.48l-.42.79c1.33-2.49,2.98-4.77,4.96-6.78l-.51.51c3.26-3.3,7.25-5.78,11.5-7.6,1.22-.52,2.47-.99,3.73-1.41l-.57.19c5.74-1.91,11.74-2.85,17.76-3.29,7.25-.52,14.55-.28,21.75.73,3.88.54,7.74,1.27,11.51,2.33l-.58-.16c2.68.75,5.31,1.68,7.88,2.75,2.16.9,4.28,1.9,6.4,2.88,4.19,1.94,8.48,3.66,13.07,4.39,2.71.43,5.47.54,8.21.44,1.39-.05,2.77-.21,4.16-.26.69-.02,1.38-.04,2.07-.06,2.32-.06,4.64-.06,6.96,0,3.01.08,6.02.24,9.03.39,5.51.28,11.03.55,16.54.81,7.17.33,14.33.74,21.48,1.29,6.67.51,13.34,1.12,19.99,1.84,6.23.68,12.46,1.45,18.67,2.33,5.85.82,11.7,1.73,17.52,2.73s11.12,1.98,16.66,3.07,10.69,2.17,16.01,3.33,10.4,2.32,15.59,3.53,10.27,2.42,15.39,3.65,10.28,2.48,15.42,3.7,10.47,2.49,15.71,3.7,10.78,2.45,16.18,3.6,11.21,2.35,16.83,3.43c5.9,1.14,11.82,2.21,17.75,3.2,6.28,1.05,12.58,2.02,18.89,2.9,7.17,1,14.36,1.9,21.54,2.78s14.82,1.78,22.24,2.6,14.84,1.61,22.27,2.35c7.47.74,14.94,1.45,22.41,2.1s14.87,1.27,22.31,1.84,14.89,1.1,22.33,1.58,14.9.93,22.35,1.33,14.91.76,22.36,1.07,14.92.59,22.38.82,14.92.42,22.38.56,14.97.25,22.45.31,14.97.08,22.45.06,14.93-.09,22.39-.2,14.92-.26,22.39-.45,14.92-.43,22.38-.71,14.91-.6,22.37-.96,14.91-.77,22.36-1.23,14.9-.95,22.34-1.49,14.97-1.13,22.45-1.76,14.87-1.29,22.3-2c3.57-.34,7.14-.69,10.72-1.05,1.79-.18,3.57-.36,5.36-.55.87-.09,1.74-.18,2.62-.27.45-.05.89-.09,1.34-.14.62-.07,1.27-.07,1.83-.37l-.56.19c4.28-.52,8.55-1.05,12.83-1.59s8.51-1.1,12.76-1.67c1.19-.16,2.39-.33,3.58-.48.61-.08,1.21-.15,1.82-.22.28-.03.57-.07.85-.1.16-.02.33-.03.49-.06.15-.03.2-.04.37-.1.21-.03.37-.13.48-.31.13-.1.23-.22.31-.36l-.92.6c4.27-.71,8.53-1.42,12.79-2.16s8.48-1.47,12.72-2.23c1.19-.21,2.38-.45,3.57-.64.6-.1,1.21-.17,1.82-.25.28-.04.57-.08.85-.12.16-.02.32-.04.48-.07.11-.02.18-.04.29-.07.25-.08.41-.28.57-.49l-.63.41c7.55-1.33,15.09-2.7,22.62-4.11,2.14-.4,4.27-.81,6.4-1.21.7-.13.78-1.3.76-1.86-.02-.43-.06-.91-.27-1.29-.11-.21-.29-.56-.58-.52h0Z"/>
  </g>
</svg>