<?xml version="1.0" encoding="UTF-8"?>
<svg id="Layer_2" data-name="Layer 2" xmlns="http://www.w3.org/2000/svg" viewBox="0 0 1441 353">
  <defs>
    <style>
      .cls-1 {
        fill: #c29678;
      }
    </style>
  </defs>
  <g id="Layer_1-2" data-name="Layer 1">
    <path class="cls-1" d="M1440.5,192.5h0s.5,0,.5,0V0h-401.16c14.57,14.01,23.66,33.69,23.66,55.5,0,42.53-34.47,77-77,77s-77-34.47-77-77c0-21.81,9.08-41.49,23.66-55.5H0v353h160.23c-3.67-8.25-5.73-17.38-5.73-27,0-36.73,29.77-66.5,66.5-66.5s66.5,29.77,66.5,66.5c0,9.62-2.06,18.75-5.73,27h1056.18c-6.7-14.44-10.45-30.53-10.45-47.5,0-62.41,50.59-113,113-113ZM80,128.5c-27.34,0-49.5-22.16-49.5-49.5s22.16-49.5,49.5-49.5,49.5,22.16,49.5,49.5-22.16,49.5-49.5,49.5ZM327,176.5c-9.66,0-17.5-7.84-17.5-17.5s7.84-17.5,17.5-17.5,17.5,7.84,17.5,17.5-7.84,17.5-17.5,17.5ZM426,78.5c-10.77,0-19.5-8.73-19.5-19.5s8.73-19.5,19.5-19.5,19.5,8.73,19.5,19.5-8.73,19.5-19.5,19.5ZM487.5,259.5c-23.2,0-42-18.8-42-42s18.8-42,42-42,42,18.8,42,42-18.8,42-42,42ZM980,305.5c-21.26,0-38.5-17.24-38.5-38.5s17.24-38.5,38.5-38.5,38.5,17.24,38.5,38.5-17.24,38.5-38.5,38.5ZM1202.5,178.5c-13.81,0-25-11.19-25-25s11.19-25,25-25,25,11.19,25,25-11.19,25-25,25Z"/>
  </g>
</svg>