<?xml version="1.0" encoding="UTF-8"?>
<svg id="Layer_2" data-name="Layer 2" xmlns="http://www.w3.org/2000/svg" viewBox="0 0 156.22 132.52">
  <defs>
    <style>
      .cls-1, .cls-2 {
        fill: #fff;
      }

      .cls-2 {
        stroke: #000;
        stroke-miterlimit: 10;
      }

      .cls-3 {
        fill: none;
      }
    </style>
  </defs>
  <g id="Layer_3" data-name="Layer 3">
    <g id="clone">
      <path class="cls-3" d="M79.7,29.45c0-.23.04-2.02,0-2.23-.05-.5-.42-.77-.51-.84s-.62-.55-1.24-.62c-.09,0-.54-.05-.5.58,0,.21-.13,3.87.11,6.61,0,.11.13,2.17.66,2.32.16.03.87.23.6-.69,0-.27-.05-.45.25-1.23.11-.28.63-1.45.62-3.91Z"/>
      <path class="cls-3" d="M88.83,21.86c-.26-1.9-.22-2.87-1.15-5.01-.58-1.18-1.37-3.85-9.26-11.49-.39-.85-1.74-3.36-1.7-1.55-.18,1.1-.28,3.82-6.03,11.18-1.29,1.6-5.2,5.99-6.77,8.34-.76.97-2.03,4.42.76,6.71,2.45,2.01,5.39,3.3,7.83,5.33-.21-.29-.08-.81.38-.81.64,0,.64,1,0,1-.1,0-.18-.03-.24-.07.28.24.57.48.83.75-.23-.28-.11-.83.37-.83.64,0,.64,1,0,1-.16,0-.27-.06-.35-.15.97,1.41,3.36,1.46,2.09,12.73,0,0,1.15-5.37,1.13-6.28-.01-.73-.24-12.42-.43-14.65,0-1.22.15-3.11,1.93-3.13.77.03,2.35,1.17,2.39,1.79.05,1.19-.17,7.06-.24,7.53-.12.53.69,2.22,2.52.4,1.21-1.05,4.65-4.13,5.75-9.11.22-1.05.5-1.77.19-3.66Z"/>
      <path class="cls-3" d="M75.24,75.82c.01,1.13,0,10.35.02,10.7-.08.8.1,1.84,1.38.67,3.61-3.5,11.8-12.97,11.93-13.38.12-.24.17-.51.15-.7.02-.19.05-.39.05-.39-.92,0-8.86,0-9.51.02-1.26-.02-3.74,1.06-4.01,3.08Z"/>
      <path class="cls-3" d="M150.62,104.54c-1.19-.86-18.2-.04-22.83,7.26-1.11,1.42-5.93,6.98-1.87,14.47,1.57,1.58,2.46,2.99,5.5,3.44,3.1.52,6.73-.01,6.73-.01,1-.3,10.49-2.3,12.75-9.75.43-1.93.03-13.9-.02-15.09,0-.06.01-.19-.27-.32ZM146.16,113.65c-.08,1.44-.07,2.91-.62,4.27-.56,1.38-1.58,2.25-2.94,2.8-.55.22-1.11.37-1.66.58-.6.23-1.16.59-1.79.74-1.36.32-2.96-.1-4.25-.58-1.19-.44-2.29-1.15-2.85-2.34-.69-1.45-.61-3.1-.33-4.65.46-2.58,1.28-5.57,3.73-6.94.33-.19.66-.23.95-.18.47-.7,1.26-1.19,2.36-1.19.6,0,1.11.15,1.52.4.36-.08.74-.05,1.03.17.61.47,1.19,1,1.93,1.24.77.25,1.53.56,2.1,1.17,1.17,1.25.91,2.95.83,4.51Z"/>
      <path d="M.08,72.09c3.62,9.18,23.17,52.87,25.68,58.49.17.38.53.62.94.64.53.03,1.29.05,2.03.01.43-.02.81-.28.97-.68,2.46-6.12,17.89-49.88,20.92-58.53.24-.69-.25-1.41-.98-1.45-1.04-.05-2.06-.08-2.96-.04-.46.02-.87.33-1,.78-1.4,4.57-1.61,5.65-2.01,6.73-2.3,7.37-12.97,44.04-13.54,46.45-.33.06-.56.07-.74.07-.41,0-.77-.25-.95-.61-3.15-6.52-21.12-46.8-23.57-52.64-.16-.39-.54-.65-.96-.66-1.02-.03-2.03-.04-2.82-.04s-1.29.77-1.01,1.49Z"/>
      <path d="M56.05,89.31c.92,0,2.15-.01,3.05-.01.6,0,1.09.49,1.09,1.09,0,5.91,0,33.91-.01,39.78,0,.6-.49,1.08-1.09,1.09-.91,0-2.15,0-3.04,0-.6,0-1.09-.48-1.09-1.08,0-5.92,0-33.9,0-39.79,0-.6.49-1.08,1.09-1.08Z"/>
      <path d="M8.18,78.89c2-.36,2.95-.59,3.92-.81.07-.02.15-.03.22-.03,2.45-.05,27.45-.91,31.34-.02l-.23.73s-24.52.15-26.03.22c-2.44-.04-3.71-.09-4.25-.07-2.17-.05-4.97-.03-4.97-.03h0"/>
      <path d="M47.98,79.54c1.78-.03,3.06.04,3.75.02.19,0,.37.05.54.13,1.1.56,3.15,1.23,4.21,2.85.34,1.44.69,2.53.74,2.92,0,0,.37-.02.73,0-.02-1.93-.12-2.55.78-2.96.73-.76.74-1.34,1.44-1.46,1.98-.04,7.72-.04,8.31-.04,0-.67,0-.85,0-.85l-6.87.04.05-.83c.02-.37-.14-.72-.44-.94-.46-.35-1.16-.85-1.56-1.08-.17-.1-.31-.25-.41-.42-.45-.83-1.32-2.22-1.33-3.35-.48-.02-.53-.07-.74,0-.25,1.31-2.46,5.44-5.12,5.19-.9.02-3.8.03-3.8.03l-.27.76"/>
      <path d="M69.59,70.5c.87,0,1.63,0,2.24,0s1.08.48,1.08,1.08c.05,7.54,0,51.09-.01,58.58,0,.6-.48,1.08-1.09,1.08-.77,0-1.66.02-2.36.03-.6,0-1.1-.47-1.1-1.08-.04-8.01.12-51.21.15-58.61,0-.6.49-1.08,1.09-1.09Z"/>
      <path d="M79.01,89.28c1.23,0,1.79,0,2.28,0,.44,0,.83.27,1,.68,1.92,4.8,11.88,30.11,14.79,36.78.36.83,1.54.89,1.96.08,3.3-6.32,9.67-31.72,11.23-36.76.14-.46.56-.76,1.04-.76,1.12,0,1.93-.06,2.64-.07.78-.02,1.34.76,1.05,1.49-2.67,6.79-13.56,34.94-15.72,39.88-.17.4-.56.66-.99.66-1.69,0-3.14-.06-4.19-.05-.47,0-.89-.27-1.05-.72-2.06-5.76-12.5-33.08-15.05-39.73-.27-.71.25-1.47,1.02-1.48Z"/>
      <path d="M156.11,100.01c0-.1-.03-.18-.06-.28-2.87-8.23-6.74-8.92-12.66-11.06-.04-.01-.07-.02-.11-.03-12.5-3.32-18.6,3.73-20.62,6.43-.11.15-.18.32-.21.51-.77,5.61,2.33,4.36,3.57,3.58.16-.1.29-.25.38-.42,3.81-7.29,6.56-8.25,8.66-8.81,2.54-1.27,5.4-.48,8.22.04.03,0,.07.01.1.02,7.93,2.13,7.71,7.3,7.43,10.31-.01.14-.05.29-.12.41-1.53,2.99-5.27,2.71-10.15,4.04-.03,0-.07.02-.11.02-10.4,1.47-14.48,4.83-15.67,5.42-.07.04-.14.07-.2.12-9.13,6.94-5.05,15.43-4.34,16.42,5.1,7.75,15.35,5.67,17.2,5.1,5.34-1.45,9.9-5.45,11.77-7.08.15-.13.32-.21.51-.24.23-.04.45-.09,1.18-.05-.08.52.08,3.64.1,5.75,0,.6.49,1.07,1.09,1.07.86,0,2.02-.01,2.97-.02.59,0,1.06-.48,1.07-1.07.09-5.23.18-27.94,0-30.19ZM150.91,119.95c-2.26,7.44-11.75,9.45-12.75,9.75,0,0-3.63.53-6.73.01-3.05-.45-3.93-1.85-5.5-3.44-4.06-7.49.75-13.05,1.87-14.47,4.63-7.3,21.64-8.13,22.83-7.26.29.13.28.25.27.32.05,1.2.45,13.16.02,15.09Z"/>
      <path d="M97.79,42.92c-.07-.07-.14-.13-.22-.18-7.74-4.81-14.42.04-17.57,2.85-.7.62-1.81.12-1.81-.82,0-1.58,0-3.56.01-4.86,0-.41.24-.8.61-.97,1.23-.56,2.85-1.98,2.85-1.98,2.92-2.37,5.16-4.22,6.98-7.36,2.36-3.92,2.41-7.04,1.96-9.09-.57-5.51-9.03-14.55-11.66-18.51-.01-.02-.03-.04-.04-.06-.49-.62-.5-.64-1.19-1.5,0,0,0,0,0,0-.62-.8-1.89-.41-1.96.6-.07.97-.18,2-.35,2.88-.95,7.11-9.64,14.67-10.6,15.6-.02.02-.04.04-.06.07-5.38,5.92-2.73,9.76-2.33,10.37.02.04.04.07.07.1,4.43,5.68,10,4.48,11.89,11.03.02.07.04.14.04.22.06.7.02,2.68,0,4.61,0,.76-.76,1.28-1.47,1.01-1.82-.69-4.63-2.35-6.66-3.33-7.68-3.7-10.15-2.64-12.6-2.47-.1,0-.21.03-.3.06-7.23,2.58-5.18,8.68-5.18,10.35,0,.12,0,.23.03.35,2.13,7.99,18.51,26.84,19.53,28.27h.71s0-1.17,0-1.17c0-.15-.03-.29-.09-.43-.15-.37-.48-1.1-.7-1.28-2.63-2.17-15.48-20.14-15.77-21.06-6.13-8.86-1.03-11.48-.11-12.67,3.9-2.99,7.09-.79,9.96,0,1.84.38,11.2,5.66,13.39,5.2.16-.22.31-.26.47-.14,1.17-10.88-1.17-10.95-2.13-12.35,0,0-.01-.01-.02-.02-.27-.26-.55-.51-.83-.75-.06-.03-.1-.07-.14-.12-2.44-2.03-5.38-3.31-7.83-5.33-2.79-2.29-1.51-5.74-.76-6.71,1.57-2.35,5.48-6.73,6.77-8.34,5.76-7.35,5.85-10.07,6.03-11.18-.04-1.81,1.31.71,1.7,1.55,7.89,7.64,8.68,10.31,9.26,11.49.93,2.14.89,3.1,1.15,5.01.32,1.89.04,2.61-.19,3.66-1.1,4.98-4.54,8.06-5.75,9.11-1.83,1.82-2.64.13-2.52-.4.07-.47.29-6.34.24-7.53-.04-.62-1.63-1.76-2.39-1.79-1.78.02-1.93,1.92-1.93,3.13.19,2.23.41,13.91.43,14.65.01.77-.81,4.74-1.06,5.94.26.21.55.8.95,1.56-.46,1.13,1.2,1.17,1.61.11,15.01-15.73,21.11-2.76,21.67-1.52,2.94,6.38-7.48,21.05-9.19,21.7-4.49,1.88-8.57-1.8-14.98,1.94-.71.53-1.87,1.17-2.01,2.72-.39,4.01.03,10.8.53,13.27.1.48.5.83.99.87.84.06,2,.11,2.19-.46,9.43-8.82,14.1-16.8,15.02-17.47,5.46-5.85,7.72-12.65,8.08-13.68,3.31-11.32-1.48-13.46-2.74-14.75ZM77.56,32.95c-.24-2.74-.11-6.4-.11-6.61-.04-.63.4-.58.5-.58.62.07,1.15.54,1.24.62s.46.34.51.84c.04.21,0,2,0,2.23,0,2.46-.51,3.62-.62,3.91-.3.78-.25.96-.25,1.23.27.91-.44.71-.6.69-.53-.15-.65-2.21-.66-2.32ZM88.71,73.11c.02.19-.02.45-.15.7-.13.41-8.32,9.88-11.93,13.38-1.28,1.18-1.46.13-1.38-.67,0-.35,0-9.57-.02-10.7.28-2.03,2.75-3.1,4.01-3.08.66-.02,8.59-.01,9.51-.02,0,0-.04.19-.05.39Z"/>
      <path class="cls-1" d="M75.72,87.7s0,0,0,0c0,0,0,0,0,0Z"/>
      <path d="M75.26,86.51c0-.34,0-5.45,0-8.52-.01,2.71,0,7.05,0,8.52Z"/>
      <path d="M76.59,87.23c-.12.11-.23.19-.33.26.1-.07.21-.16.33-.26Z"/>
      <path class="cls-2" d="M76.02,87.62s-.06.03-.09.04c.03,0,.06-.03.09-.04Z"/>
      <polygon class="cls-1" points="88.51 73.9 88.51 73.9 88.5 73.9 88.51 73.9"/>
      <path d="M88.71,73.21s0-.02,0-.02c0-.14.03-.27.06-.46,0,0-.04.19-.05.39,0,.03,0,.07,0,.1Z"/>
      <path d="M76.79,87.04s.02-.02.04-.03c1.14-1.06,3.67-3.82,6.11-6.57-2.2,2.48-4.57,5.05-6.15,6.6Z"/>
      <path class="cls-2" d="M88.61,73.69c.03-.06.05-.13.07-.2-.02.06-.04.13-.07.2Z"/>
      <path d="M76.67,40.27c.03,1.3.04,2.23.05,2.42,0-.25-.02-1.16-.05-2.42Z"/>
      <path class="cls-2" d="M74.57,37.44s-.05-.07-.08-.1c.03.03.05.06.08.1Z"/>
      <path class="cls-2" d="M65.62,30.75c-.3-.22-.59-.44-.88-.67.26.22.56.45.88.67Z"/>
      <path d="M76.67,43.24s-.01.1-.02.15c0-.05.02-.1.02-.15Z"/>
      <path d="M76.62,43.6c-.28,1.82-1.03,5.36-1.03,5.36,0,0,.76-3.53,1.03-5.36Z"/>
      <path class="cls-1" d="M64.34,29.71s-.02-.02-.02-.02c0,0,.02.02.02.02Z"/>
      <path class="cls-1" d="M80.49,34.85s0,0,0-.01c0,0,0,0,0,.01Z"/>
      <path d="M80.37,34.23c0-.05.02-.18.03-.35,0,.12-.02.23-.03.35Z"/>
      <path d="M72.85,35.66c-.28-.25-.58-.49-.88-.72.3.23.59.47.88.72Z"/>
      <path class="cls-2" d="M83.51,34.07c-.11.1-.19.18-.29.26.1-.09.19-.17.29-.26Z"/>
      <path d="M81.8,35.38s-.04.02-.07.02c.02,0,.04-.02.07-.02Z"/>
      <path class="cls-2" d="M71.46,34.54s-.1-.07-.15-.11c.05.04.1.07.15.11Z"/>
      <path d="M75.94,42.9c0,.77-.02,1.59-.05,2.39.05-.89.06-1.68.05-2.39Z"/>
      <path d="M77.5,32.17s0-.06,0-.1c0,.03,0,.06,0,.1Z"/>
      <path class="cls-2" d="M77.55,32.85c0-.07-.01-.14-.02-.21,0,.07.01.14.02.21Z"/>
      <path class="cls-2" d="M79.7,29.38s0,.04,0,.05c0-.02,0-.03,0-.05Z"/>
      <path d="M79.41,32.3c-.1.42-.2.71-.27.89.09-.23.18-.51.27-.89Z"/>
      <path class="cls-1" d="M78.84,35.13s0,.01-.01.02c0,0,0-.01.01-.02Z"/>
      <path d="M78.82,34.58c0-.19,0-.35.03-.49-.04.21-.03.34-.03.49Z"/>
      <path class="cls-1" d="M79.09,33.33s.03-.07.05-.11c-.02.05-.03.08-.05.11Z"/>
      <path d="M78.87,35.04c.05-.21-.05-.46-.05-.46.06.21.07.35.05.46Z"/>
      <path d="M90.87,72.83l4.93.66s.04,0,.06,0l10.48.78,8.98.73,8.29.73,7.54.76,6.66.78,6.74.78s.05,0,.07.01l3.81.7,3.58.71c.07.01.14.02.21.02h2.02v-.69l-2.16-.72s-.05-.02-.07-.02l-2.94-.76s-.06-.01-.09-.02l-4.44-.75-6.05-.73-6.71-.76-6.76-.77-8.22-.73-8.98-.74-10.58-.76s-.05,0-.07,0l-4.49-.62c-.38-.05-.76.1-1,.4l-.82,1.01Z"/>
    </g>
  </g>
</svg>