<?xml version="1.0" encoding="UTF-8"?>
<svg xmlns="http://www.w3.org/2000/svg" version="1.1" viewBox="0 0 1797.6 426.4">
  <!-- Generator: Adobe Illustrator 29.5.1, SVG Export Plug-In . SVG Version: 2.1.0 Build 141)  -->
  <defs>
    <style>
      .st0 {
        fill: #c29678;
      }

      .st1 {
        stroke-width: 7px;
      }

      .st1, .st2 {
        fill: none;
        stroke: #c29678;
        stroke-miterlimit: 10;
      }

      .st2 {
        stroke-width: 6px;
      }
    </style>
  </defs>
  <g id="Layer_2">
    <g id="Layer_1-2">
      <g>
        <g id="Layer_3">
          <g id="clone">
            <path class="st0" d="M844.2,155.6c-10.7-8.9-23.7-14.6-34.5-23.4-12.3-10.1-6.6-25.3-3.3-29.5,6.9-10.3,24.1-29.6,29.8-36.7,25.3-32.3,25.7-44.3,26.5-49.2-.2-8,6,3.8,8.5,6.3,34.7,33.6,37.2,45.9,39.7,51.1,4.1,9.4,3.9,13.6,5.1,22.1,1.4,8.3.2,11.5-.8,16.1-4.8,21.9-20,35.5-25.3,40.1-8,8-11.6.6-11.1-1.8.3-2.1,1.3-27.9,1.1-33.1-.2-2.7-7.2-7.7-10.5-7.9-7.8,0-8.5,8.4-8.5,13.8.8,9.8,1.8,61.2,1.9,64.5,0,3.4-3.6,20.9-4.7,26.1,1.1.9,5.7,2.7,4.2,6.9-2,5,4,3.3,7.1.5,66-69.2,92.9-12.1,95.3-6.7,12.9,28.1-32.9,92.6-40.4,95.5-19.8,8.3-37.7-7.9-65.9,8.5-3.1,2.3-8.2,5.1-8.8,12-1.7,17.6.1,47.5,2.3,58.4.4,2.1,2.2,3.6,4.4,3.8,3.7.3,8.8.5,9.6-2,41.5-38.8,62-73.9,66.1-76.9,24-25.7,34-55.7,35.5-60.2,14.6-49.8-6.5-59.2-12.1-64.9h0c-.3-.3-.6-.6-1-.8-34.1-21.2-63.5.2-77.3,12.5-3.1,2.7-8,.5-8-3.6,0-6.9,0-15.7,0-21.4,0-1.8,1.1-3.5,2.7-4.3,5.4-2.5,12.5-8.7,12.5-8.7,12.8-10.4,22.7-18.6,30.7-32.4,10.4-17.2,10.6-31,8.6-40-2.5-24.2-39.7-64-51.3-81.4,0,0-.1-.2-.2-.3-2.2-2.7-2.2-2.8-5.2-6.6h0c-2.7-3.5-8.3-1.8-8.6,2.6-.3,4.3-.8,8.8-1.5,12.7-4.2,31.3-42.4,64.5-46.6,68.6,0,0-.2.2-.3.3-23.7,26.1-12,42.9-10.2,45.6,0,.2.2.3.3.4,19.5,25,44,19.7,52.3,48.5,0,.3.2.6.2,1,.3,3.1,0,11.8,0,20.3,0,3.3-3.3,5.6-6.5,4.4-8-3-20.4-10.3-29.3-14.6-33.8-16.3-44.7-11.6-55.4-10.9-.4,0-.9.1-1.3.3-31.8,11.4-24.3,38.7-22.8,45.5.1.5.2.9,1.1,3.4,9.4,35.2,80.5,116.2,85,122.5h3.1l3.2-.2c0-.7-1.7-2.4-2-3-.7-1.6-2-4-7-11-14-15-65.8-87.1-67.1-91.2-27-39-4.5-50.5-.5-55.8,17.2-13.2,31.2-3.5,43.8,0,8.1,1.7,49.3,24.9,58.9,22.9,1.1-.2,2.1-.3,2.9-.3,3.9-44.9-8.1-52.6-10.2-54.7l-4.4-3.9h0ZM866.4,144.9c-1.1-12.1-.5-28.2-.5-29.1-.2-2.8,1.8-2.6,2.2-2.6,2.7.3,5.1,2.4,5.5,2.7s2,1.5,2.2,3.7c.2.9,0,8.8,0,9.8,0,10.8-2.2,15.9-2.7,17.2-1.3,3.4-1.1,4.2-1.1,5.4.4,3.7-1.9,3.1-2.6,3-2.3-.7-2.9-9.7-2.9-10.2h0s0,0,0,0ZM915.5,321.6c0,.8,0,2-.7,3.1-.6,1.8-36.6,43.5-52.5,58.9-5.6,5.2-6.4.6-6.1-3,0-1.5,0-42.1,0-47.1,1.2-8.9,12.1-13.6,17.6-13.5,2.9,0,37.8,0,41.8,0,0,0-.2.8-.2,1.7h0Z"/>
            <path class="st0" d="M856.3,380.6v-37.5c0,11.9,0,31,0,37.5Z"/>
            <path class="st0" d="M862.2,383.8c-.5.5-1,.8-1.5,1.1.4-.3.9-.7,1.5-1.1Z"/>
            <path class="st0" d="M859.7,385.5s-.3.1-.4.2c.1,0,.3-.1.4-.2Z"/>
            <path class="st0" d="M915.5,322.1h0c0-.7.1-1.3.3-2.1,0,0-.2.8-.2,1.7v.4h0s0,0,0,0Z"/>
            <path class="st0" d="M863,382.9s0,0,.2-.1c5-4.7,16.2-16.8,26.9-28.9-9.7,10.9-20.1,22.2-27.1,29h0Z"/>
            <path class="st0" d="M915.1,324.2c.1-.3.2-.6.3-.9,0,.3-.2.6-.3.9Z"/>
            <path class="st0" d="M862.5,177.1c.1,5.7.2,9.8.2,10.6,0-1.1,0-5.1-.2-10.6Z"/>
            <path class="st0" d="M853.3,164.7s-.2-.3-.3-.4c.1.1.2.3.3.4Z"/>
            <path class="st0" d="M863.6,112.2c-.3.3-.5.7-.7,1.1.2-.4.5-.8.7-1.1Z"/>
            <path class="st0" d="M862.5,190.2s0,.4,0,.7c0-.2,0-.4,0-.7Z"/>
            <path class="st0" d="M892.6,149.9c-.5.4-.8.8-1.3,1.1.4-.4.8-.8,1.3-1.1Z"/>
            <path class="st0" d="M885.1,155.6s-.2,0-.3,0c0,0,.2,0,.3,0Z"/>
            <path class="st0" d="M864.7,111.1s0,0,0,0c0,0,0,0,0,0Z"/>
            <path class="st0" d="M859.3,188.7c0,3.4,0,7-.2,10.5.2-3.9.3-7.4.2-10.5Z"/>
            <polygon class="st0" points="874.6 117 874.6 116.9 874.6 117 874.6 117"/>
            <path class="st0" d="M866.4,144.5c0-.3,0-.6,0-.9,0,.3,0,.6,0,.9Z"/>
            <path class="st0" d="M874.6,142.1c-.4,1.9-.9,3.1-1.2,3.9.4-1,.8-2.2,1.2-3.9Z"/>
            <path class="st0" d="M872.1,154.5s0,0,0,0c0,0,0,0,0,0Z"/>
            <path class="st0" d="M873.2,146.6s.1-.3.2-.5c0,.2-.1.4-.2.5Z"/>
            <path class="st0" d="M925,320.4l21.7,2.9h.3l46.1,3.4,39.5,3.2,36.5,3.2,33.2,3.3,29.3,3.4,30.1,5.5s-.2-2.1-.1-2.1l16.8,3.1,7.3,1c.3,0,.7,0,1,0l17,2h10l-15-3s-4.9-1-5-1l-5-1s-9.9-2-10-2l-34-8-10-2-29.4-3.8-29.8-3.4-36.4-1.8-39.5-3.3-46.5-3.3h-.3l-19.8-2.7c-1.7-.2-3.3.4-4.4,1.8l-3.6,4.4h0Z"/>
          </g>
        </g>
        <path class="st1" d="M1144.1,338c41.3,9.4,82.8,18.4,124.6,25.1,42.2,6.8,84.8,11.8,127.3,14.9,42.6,3.1,85.5,3.8,128.2,3.9,43,.1,86.1-1.1,129-4.2,42.9-3.1,85.7-8,128.1-15.1,5.2-.9,10.4-1.8,15.6-2.7"/>
        <path class="st2" d="M811.6,332.5c9,11.3,20.5,27,32,47,8.5,14.7,12.7,22.1,12,25-7,28.2-226.2-3.9-280-11-130.7-17.3-322.4-24-575,30"/>
      </g>
    </g>
  </g>
  <g id="Layer_31" data-name="Layer_3">
    <path class="st0" d="M1806.4-93.2c-7.5.9-15.1,1.7-22.7,2.6s-4.3.5-6.4.7h.3c-.3-.2-.7,0-1,0s-.5,0-.8.1c-.5,0-1.1.1-1.6.2-1.1.1-2.1.2-3.2.3-2.1.2-4.2.4-6.4.6-4.2.4-8.5.8-12.8,1.1s-4.8.4-7.2.6l1,.6c-.3-.3-.6-.7-1.1-.7s-.3,0-.4,0c-.3,0-.5,0-.8,0-.5,0-1.1.1-1.6.2-1.1.1-2.1.2-3.2.3-2.1.2-4.3.4-6.4.7-4.3.4-8.5.8-12.8,1.2s-4.8.5-7.2.7l.6.2c-.3,0-.5-.2-.8-.2s-.2,0-.4,0c-.2,0-.4,0-.6,0-.4,0-.9,0-1.3.1-.9,0-1.8.2-2.7.3-1.8.2-3.6.4-5.4.5-3.6.4-7.1.7-10.7,1-7.1.7-14.2,1.3-21.3,1.9s-14.3,1.1-21.5,1.7-14.2,1-21.4,1.4c-7.2.4-14.3.8-21.5,1.2s-14.3.7-21.4,1-14.3.5-21.5.7-14.3.4-21.5.5-14.3.2-21.4.3-14.4,0-21.5,0-14.3,0-21.4-.2-14.4-.3-21.5-.4-14.3-.4-21.4-.7-14.3-.6-21.5-.9-14.3-.7-21.4-1.1-14.3-.9-21.4-1.4-14.3-1-21.4-1.6-14.2-1.2-21.3-1.8-14.3-1.3-21.4-2.1-14.2-1.5-21.3-2.3-14.3-1.7-21.4-2.5-13.5-1.7-20.3-2.7-12-1.8-18-2.8-11.3-2-17-3.1-10.7-2.1-16.1-3.3-10.4-2.3-15.5-3.5-10-2.3-15-3.5-9.9-2.4-14.8-3.6-9.8-2.4-14.7-3.5-10-2.3-14.9-3.4-10.1-2.2-15.2-3.2-10.5-2.1-15.8-3-11-1.9-16.5-2.7-11.6-1.7-17.4-2.4-12.4-1.4-18.6-2-13.2-1.1-19.8-1.5-13.2-.7-19.8-1-7.9-.4-11.8-.6-4.8-.2-7.2-.2-2.2,0-3.3,0-2.9,0-4.3.2c-5,.4-10,.2-14.9-1.1l.6.2c-3.8-1.1-7.3-2.8-10.8-4.4s-3.9-1.8-5.9-2.6-5.2-1.8-7.8-2.5c-6.2-1.6-12.6-2.5-19-2.9s-12.8-.1-19.1.7-10.6,2-15.5,4-4.6,2.1-6.7,3.5-4.4,3.3-6.3,5.3c-4.2,4.4-6.7,10.1-8.3,15.9s-2.3,12-3,18-1.3,12.9-1.3,19.3.2,6.8.7,10.1,1.2,6.6,2.2,9.7,1.2,3.3,1.9,4.9,1.1,1.8,2.1,1.2c5-2.8,9.8-6.1,14.3-9.7s8.8-7.5,12.9-11.6,8.3-8.6,12.3-13.1,8-9.3,11.9-14,7.9-9.7,11.7-14.7,7.6-10,11.3-15.1c3.7-5.1,7.3-10.2,10.8-15.4s6.9-10.3,10.2-15.6,6.6-10.9,9.5-16.6,5.2-11.1,7-16.9,3.5-13.2,3.9-20c.5-7.3,0-14.6-1.7-21.6s-3.6-10.7-6.6-15.5-6.2-8.3-10.3-11.4-4-2.8-6.2-3.9-5.2-2.2-7.9-2.9c-5.5-1.3-11.2-1.4-16.8-.5s-11.6,2.8-17.1,5.1-10.2,4.9-15.1,7.9-8.8,5.8-12.7,9.3-7.6,7.6-10.3,12.3-2.6,4.8-3.5,7.4-.6,2.3-.6,3.5c0,.6,0,1.3.2,1.9,0,.6.2,1.1.5,1.6.3.6.8,1.5,1.6,1.4s1.2-.8,1.5-1.5c1.3-2.4,2.6-4.8,3.8-7.2l.3-1c.1-.6.2-1.2.2-1.9,0-1,0-2.2-.3-3.2s-.4-1.2-.8-1.8-1.1-.9-1.7-.5,0,0-.2,0l.6-.2c-.1,0-.2,0-.4,0l.6.2c-.2,0-.3-.1-.4-.2l.5.5c0,0-.2-.2-.2-.3l.5.8c0,0,0-.1,0-.2l.4,1c0,0,0-.1,0-.2l.2,1.2s0,0,0-.1v1.3c.1,0,.1,0,.1,0v1.3s0,0,0-.1l-.2,1.2s0,0,0-.1l-.3,1s0,0,0,0l-.4.8s0,0,.1-.1l-.5.5s0,0,0,0h-1.2c.1,0,.2.1.3.2l-.5-.5c0,0,.1.2.2.2l-.5-.8c0,0,0,.1.1.2l-.4-1c0,0,0,.1,0,.2l-.2-1.2c0,0,0,.1,0,.2v-1.3c-.1,0-.1,0-.1.1v-1.3c0,0,0,.1,0,.2l.2-1.2c0,0,0,.1,0,.2l.3-1c0,0,0,.2,0,.2l.4-.8c0,0,0,.1-.1.2l.5-.5c0,0-.2.1-.3.2l2.5,2.2c-.4-1.3-.7-2.7-1-4.1l.2,1.2c-.5-2.5-.9-5-1.1-7.5v1.3c-.1-2.8-.2-5.6,0-8.4v1.3c0-3.7.5-7.3,1-11l-.2,1.2c.8-5.3,2.1-10.5,3.6-15.7s.9-2.9,1.3-4.4l-.3,1c1.7-5.6,3.7-11.2,5.6-16.7s2.1-6.2,3-9.3,1.6-6.4,2.2-9.7.6-7,.4-10.5-1-6.9-2.4-10-2.9-5-5.4-6.5-2.4-1.1-3.7-1.4-2.2-.2-3.3,0-2.4.8-3.4,1.6-1.7,1.7-2.3,2.8-1.4,3-1.7,4.6-.5,2.9-.6,4.4c-.2,2.9,0,5.9,0,8.8s.2,6.1.3,9.2.2,6.1.3,9.2.2,6.7.5,10,.5,3.5.9,5.2.9,3.1,1.6,4.5c1.2,2.4,3,4.7,5.4,6s4.8,1.5,7.1.9,4.7-1.9,6.6-3.6,4-3.8,5.8-5.9,4-4.6,6-6.9c3.9-4.5,7.8-8.9,11.6-13.5s7-9,9.3-14.2,3.5-11.9,3.9-18,.3-12.1-.1-18-1.2-12.9-3-19.1-4.1-11.1-7.2-16.2-6.2-9.8-9.4-14.7-6.1-9.2-9.3-13.7-6.4-9-9.8-13.3-7-8.5-10.7-12.5-3.7-3.8-5.6-5.6c-.2-.3-.5-.5-.8-.6-.3-.1-.6-.1-.9.1l-.5.5c-.4.6-.6,1.2-.7,1.8l-1,4.5c-.3,1.3-.5,2.7-.7,4-.5,2.5-1,4.9-1.7,7.4s-.7,2.6-1.1,3.9l.3-1c-1.3,4.3-3,8.5-4.9,12.5s-1.1,2.2-1.7,3.3l.4-.8c-2.2,4.2-4.8,8.2-7.5,12.1s-6.1,8.4-9.3,12.4-7.2,8.4-11,12.5-7.5,8.2-11,12.4-6.7,8.7-9.4,13.5-3,5.6-4,8.5-2,6.8-2.2,10.3.1,7.8,1.4,11.5,1.1,2.9,1.9,4.3,1.5,2.6,2.4,3.8c1.7,2.2,3.6,4.2,5.7,6s4.1,3.4,6.2,4.9c4.8,3.5,9.9,6.5,14.9,9.8s9.2,6.3,13.5,9.9,1.9,1.6,2.8,2.4l-.5-.5c2.4,2.2,4.7,4.6,6.6,7.3s1,1.5,1.5,2.3l-.5-.8c.8,1.4,1.5,2.8,2.1,4.3l-.4-1c.3,1,.6,1.9.8,2.9l-.2-1.2c.2.8.3,1.6.4,2.4v-1.3c0,1.7.2,3.3.4,4.9s.3,2.5.4,3.7v-1.3c0,.8,0,1.7,0,2.5s0,.9,0,1.4c0,.9,0,1.7.2,2.5v-1.3c0,.5,0,.9,0,1.4v-1.3c0,1.1-.1,2.1-.3,3.2l.2-1.2c-.2,1.4-.4,2.9-.8,4.2l.3-1c-.2.8-.6,1.5-.9,2.3l.4-.8c-.5,1-1.2,1.9-2,2.7l.5-.5c-1,1-2.1,1.8-3.4,2.2l.6-.2c-1.7.6-3.5.5-5.2,0l.6.2c-2.4-.7-4.5-2-6.5-3.3s-4.3-2.8-6.5-4.1c-4.4-2.7-8.8-5.2-13.4-7.5s-9.2-4.5-13.9-6.5-9.6-3.8-14.6-5.4-10.6-2.9-16.1-2.5-10.6,1.9-15.6,3.9-7.4,3.3-10.6,5.7-6.2,5.3-8.4,8.7-4.4,9.5-5,14.7,0,12.2,1.5,18,3.5,10,6,14.7,5.2,9.2,7.8,13.8,5.6,9.6,8.4,14.3,5.6,9,8.6,13.3,6.1,8.6,9.4,12.8,6.6,8.1,10,12.1,6.9,7.9,10.4,11.9,6.9,7.9,10.3,11.9,6.6,7.9,9.7,12.1,5.8,8.4,8.6,12.8,2.6,4.2,3.9,6.4l-.5-.8c3.1,5.2,6.2,10.5,9.3,15.8s2.1,3.4,3.1,5.2l-.5-.8c2.4,4.3,5,8.4,7.7,12.6s1.1,1.8,1.6,2.6l-.5-.8c1.1,1.8,2.1,3.6,2.8,5.6l-.4-1c.2.6.4,1.2.5,1.8l-.2-1.2c0,.4.1.8.2,1.2v-1.3c0,.3,0,.6,0,.9v-1.3c0,.3,0,.6,0,.9l.2-1.2c0,.4-.1.7-.2,1.1l.3-1c-.2.5-.4,1-.6,1.5l.4-.8c-.6,1.1-1.4,2.2-2.3,3.1l.5-.5c-2,2-4.5,3.3-7.2,4.2l.6-.2c-4.6,1.5-9.5,1.9-14.3,2.2s-4.9.2-7.3.4-6.1.5-9.1.7c-7.2.5-14.4.8-21.6,1s-14.4,0-21.7-.1-14.4-.6-21.6-1.1-14.4-1.1-21.6-1.8-14.4-1.5-21.6-2.4-14.4-1.8-21.6-2.8-14.4-2-21.5-3.1-14.3-2.1-21.5-3.1-14.3-2.1-21.4-3-14.1-1.9-21.1-2.8-14.1-1.7-21.1-2.5-14.1-1.5-21.2-2.3-14.1-1.4-21.2-2-14.1-1.2-21.2-1.8-14.1-1.1-21.2-1.5-14.2-.9-21.2-1.3-14.2-.7-21.2-1-14.2-.6-21.3-.8-14.2-.4-21.3-.6-14.2-.2-21.3-.3-14.2,0-21.3,0-14.2,0-21.3.2-14.2.2-21.3.4-14.2.4-21.3.7-14.2.6-21.3.9-14.2.7-21.2,1.2-14.2.9-21.2,1.4-14.1,1.1-21.2,1.6-14.1,1.2-21.2,1.9-14.1,1.4-21.2,2.1-14.1,1.5-21.1,2.4-14.1,1.7-21.1,2.6-14.1,1.9-21.1,2.9-14,2-21,3.1-14,2.2-21,3.3-14,2.4-21,3.6-14,2.5-20.9,3.8-14,2.7-20.9,4.1-6.7,1.4-10,2-.8.2-1.2.3-.5,0-.8.2c-.3.2-.5.4-.6.7l-.3.5-1.3,2.3-2.6,4.7c-.3.4-.5.8-.6,1.3-.2.5-.3,1.1-.3,1.7,0,.7,0,1.3,0,2,0,.6.1,1.2.3,1.8l.4,1c.2.5.5.9,1,1.3l.6.2c.5,0,.8-.3,1.1-.7l4.4-7.7-1.1.7c7.4-1.5,14.8-3,22.3-4.5s14.9-2.9,22.3-4.2,14.9-2.7,22.4-3.9,14.9-2.5,22.4-3.7,15-2.3,22.5-3.4,15-2.1,22.5-3.1,15-1.9,22.5-2.8,15-1.7,22.6-2.5,15-1.6,22.5-2.3,15.1-1.4,22.6-2,15.1-1.2,22.7-1.7,15.1-1,22.7-1.4,15.1-.8,22.7-1.2,15.1-.6,22.7-.9,15.1-.4,22.7-.6,15.1-.3,22.7-.3,15.1,0,22.7,0,15.1.1,22.7.2,15.1.3,22.7.5,15.1.5,22.7.8,15.1.7,22.7,1.1,15.1.8,22.7,1.3,15.1,1,22.7,1.6,15.1,1.2,22.6,1.9,15.1,1.4,22.6,2.2,15.1,1.6,22.6,2.5,15,1.8,22.5,2.7,15,2,22.6,3,15.3,2.2,23,3.3,15.3,2.2,23,3.3,15.3,2.2,23,3.2,15.3,1.9,23,2.8,15.4,1.6,23,2.2,15.4,1.1,23.1,1.4,15.4.4,23.1.4,15.4-.3,23.1-.8,7-.6,10.5-.8,5.1-.3,7.7-.4c5.3-.3,10.7-.7,15.8-2.4s4.3-1.8,6.1-3.2,3.7-3.8,4.7-6.2.9-2.8,1-4.3.1-3.2-.1-4.8c-.4-2.5-1.3-4.8-2.4-7s-2.5-4.4-3.9-6.6-3.2-5.1-4.8-7.7l.5.8c-1.4-2.4-2.8-4.7-4.2-7.1l.5.8c-2.4-4-4.7-8-7.1-12s-4.9-8.4-7.5-12.5-4.9-7.6-7.5-11.3-5.4-7.3-8.3-10.8-6-7.1-9.1-10.6-6.1-7-9.2-10.4-6.1-7-9.1-10.6-5.9-7.2-8.7-10.9-5.5-7.6-8.1-11.5-5.1-7.8-7.5-11.8-1.2-1.9-1.8-2.9l.5.8c-2.6-4.3-5-8.6-7.5-12.9s-2.4-4.3-3.6-6.5-2.4-4.2-3.5-6.4-2.3-4.7-3.2-7.2l.4,1c-.8-2.2-1.5-4.5-2-6.9l.2,1.2c-.3-1.6-.6-3.3-.7-5v1.3c0-1.4,0-2.7,0-4.1v1.3c0-1.3.1-2.6.3-3.9l-.2,1.2c.2-1.4.5-2.7.9-4l-.3,1c.5-1.6,1.1-3.2,1.9-4.7l-.4.8c1.3-2.4,2.9-4.5,4.8-6.5l-.5.5c3.7-3.8,8.3-6.5,13.2-8.6s3.3-1.3,5-1.9l-.6.2c3.1-1,6.3-1.9,9.6-2.3s6.5-.3,9.7.2,3.6.7,5.4,1.2l-.6-.2c3,.9,6,1.9,9,3s5.7,2.2,8.5,3.4c5.7,2.4,11.2,5,16.6,7.9s10.7,6,15.8,9.4,2.5,1.6,3.7,2.3,2.9,1.4,4.5,1.8c2.7.7,5.6,0,7.8-1.6s2.1-1.9,2.9-3,1.5-2.6,2-4,.6-1.8.7-2.7.2-1.3.3-1.9c.2-1.1.4-2.1.5-3.2s.2-2.2.2-3.3,0-2.1-.2-3.2v1.3c.2-2.5,0-5-.3-7.5s-.5-3.6-.6-5.4v1.3c0-.9,0-1.9-.2-2.8s-.3-1.7-.5-2.6c-.3-1.3-.7-2.6-1.2-3.8-.8-2.2-2-4.2-3.3-6.1-2.5-3.7-5.7-6.9-9.1-9.9s-7.1-5.9-10.9-8.5-8.5-5.5-12.8-8.3-8-5.3-11.7-8.5-.8-.7-1.2-1.1l.5.5c-2.4-2.2-4.6-4.7-6.3-7.5l.5.8c-.7-1.2-1.3-2.5-1.8-3.8l.4,1c-.3-.9-.6-1.8-.8-2.8l.2,1.2c-.2-.8-.3-1.6-.3-2.4v1.3c0-.8,0-1.7,0-2.5v1.3c0-1,0-2,.3-3l-.2,1.2c.2-1.4.6-2.7,1-4.1l-.3,1c.8-2.6,1.9-5.2,3.2-7.6l-.4.8c1.9-3.6,4.2-7,6.6-10.3s5-6.4,7.7-9.4,5.5-6.1,8.2-9.1,5.5-6.1,8.1-9.2,5-6.2,7.3-9.3,4.3-5.9,6.2-8.9,3.9-6.4,5.6-9.7,3-6.2,4.2-9.4,2.6-7.4,3.5-11.2.9-3.7,1.3-5.6.4-2,.5-2.9.4-2.2.6-3.2l.8-3.4-2.9,1.9c3.5,3.3,6.7,6.7,9.9,10.3s6.1,7.3,9,11,5.7,7.7,8.4,11.6,5.4,7.9,8,11.8,5.4,8,7.9,12.1.6,1,1,1.6l-.5-.8c2.3,3.8,4.3,7.8,5.9,12l-.4-1c1,2.6,1.7,5.3,2.3,8l-.2-1.2c.7,3.4,1.2,6.9,1.5,10.4v-1.3c.2,4.3.4,8.6.4,12.9s0,2.4,0,3.6v-1.3c0,2.7-.3,5.5-.7,8.2l.2-1.2c-.3,2.1-.8,4.2-1.4,6.2l.3-1c-.7,2.2-1.6,4.4-2.7,6.5l.4-.8c-2.6,4.8-6.1,9-9.6,13.1-4,4.6-8,9.2-11.9,13.8s-4.1,4.9-6.3,7.1l.5-.5c-2.2,2.3-4.8,4.4-7.8,5.5l.6-.2c-1.8.6-3.7.7-5.5.2l.6.2c-1.4-.4-2.6-1.1-3.6-2.1l.5.5c-.8-.8-1.6-1.7-2.2-2.7l.5.8c-.4-.8-.8-1.5-1.1-2.4l.4,1c-.3-.8-.5-1.7-.7-2.5l.2,1.2c-.2-1.2-.4-2.4-.5-3.6v1.3c0-2.2,0-4.4-.2-6.5s-.1-4.5-.2-6.8c-.1-4.6-.3-9.1-.4-13.7s-.2-4.4-.1-6.6v1.3c0-1,0-2,.2-2.9l-.2,1.2c.1-.7.3-1.4.5-2l-.3,1c.2-.6.4-1.2.7-1.8l-.4.8c.4-.7.8-1.3,1.3-1.8l-.5.5c.7-.8,1.6-1.3,2.6-1.7l-.6.2c1.5-.5,3.2-.5,4.7,0l-.6-.2c1.4.4,2.8,1.1,3.9,2.1l-.5-.5c.9.8,1.6,1.7,2.2,2.7l-.5-.8c.5.8.9,1.7,1.2,2.6l-.4-1c.3.9.6,1.8.8,2.7l-.2-1.2c.2,1.1.4,2.2.5,3.2v-1.3c0,1.3,0,2.5,0,3.8v-1.3c0,1.7-.2,3.3-.4,5l.2-1.2c-.5,3.4-1.4,6.7-2.4,9.9l.3-1c-1.5,4.8-3.2,9.6-4.8,14.4s-3.4,10.2-4.8,15.4-2.6,10.5-3.5,15.8-1.2,10.7-1.2,16,.8,11.4,2.2,16.9.3,1.2.5,1.8c.3,1,1.1,3,2.5,2.2s.6-.5.8-.7.4-.7.6-1.1c.7-1.7.8-3.7.5-5.5s-.5-2.5-1.3-3.5-.5-.6-.8-.8-.1,0-.2-.1c-.5-.2-.8-.2-1.2,0s-.9,1-1.1,1.5c-.3.8-.5,1.6-.6,2.4-.2,1.8,0,3.7.8,5.4s1.9,2.6,3.3,1.6l-2.3-8.3c-1.3,2.4-2.6,4.8-3.8,7.2l3.2,7c.6-1.8,1.4-3.6,2.3-5.3l-.4.8c1.6-3.1,3.7-5.9,5.9-8.5s1.3-1.5,2-2.2l-.5.5c3.7-3.8,8-7.1,12.4-10s9.6-5.9,14.7-8.3,6.1-2.7,9.2-3.7l-.6.2c3.6-1.2,7.3-2.1,11-2.7s7.4-.6,11.1-.2,4.1.6,6.1,1.2l-.6-.2c4.3,1.2,8.4,3.3,12,6s1.9,1.5,2.8,2.4l-.5-.5c2.4,2.2,4.5,4.7,6.3,7.4s1,1.6,1.5,2.4l-.5-.8c1.5,2.5,2.8,5.2,3.8,8l-.4-1c.8,2.2,1.4,4.4,1.9,6.6l-.2-1.2c.5,2.2.8,4.5,1,6.8v-1.3c0,2.4.1,4.7,0,7.1v-1.3c0,2.9-.3,5.7-.8,8.6l.2-1.2c-.6,3.8-1.5,7.5-2.6,11.2l.3-1c-1.6,5.3-3.8,10.4-6.2,15.4s-1.4,2.8-2.1,4.2l.4-.8c-1.9,3.6-3.9,7-6,10.5s-4.3,6.8-6.5,10.2-4.5,6.9-6.9,10.3-4.7,6.8-7.1,10.1-4.8,6.7-7.3,9.9-5,6.6-7.5,9.8-5.1,6.5-7.7,9.7-5.2,6.3-7.9,9.5-5.2,6-7.8,9-5.1,5.6-7.7,8.4-1.3,1.4-2,2l.5-.5c-3.3,3.4-6.8,6.6-10.3,9.7s-7.3,6-11.2,8.6-4.5,2.9-6.8,4.2l2.1,1.2c-.5-1-.9-2-1.3-3l.4,1c-.7-1.9-1.3-3.9-1.7-6l.2,1.2c-.5-2.2-.8-4.4-1-6.7v1.3c-.1-3.1-.2-6.2,0-9.3v1.3c.2-6.2.9-12.3,1.6-18.5s.4-3.3.7-5l-.2,1.2c.5-3,1.1-5.9,2-8.8l-.3,1c.7-2.2,1.6-4.4,2.7-6.5l-.4.8c1.3-2.5,3-4.8,5-6.8l-.5.5c3.3-3.3,7.2-5.8,11.5-7.6s2.5-1,3.7-1.4l-.6.2c5.7-1.9,11.7-2.9,17.8-3.3s14.6-.3,21.7.7,7.7,1.3,11.5,2.3l-.6-.2c2.7.8,5.3,1.7,7.9,2.7s4.3,1.9,6.4,2.9c4.2,1.9,8.5,3.7,13.1,4.4s5.5.5,8.2.4,2.8-.2,4.2-.3,1.4,0,2.1,0c2.3,0,4.6,0,7,0s6,.2,9,.4c5.5.3,11,.6,16.5.8s14.3.7,21.5,1.3,13.3,1.1,20,1.8,12.5,1.5,18.7,2.3,11.7,1.7,17.5,2.7,11.1,2,16.7,3.1,10.7,2.2,16,3.3,10.4,2.3,15.6,3.5,10.3,2.4,15.4,3.7,10.3,2.5,15.4,3.7,10.5,2.5,15.7,3.7,10.8,2.4,16.2,3.6,11.2,2.3,16.8,3.4,11.8,2.2,17.8,3.2,12.6,2,18.9,2.9,14.4,1.9,21.5,2.8,14.8,1.8,22.2,2.6,14.8,1.6,22.3,2.3c7.5.7,14.9,1.4,22.4,2.1s14.9,1.3,22.3,1.8,14.9,1.1,22.3,1.6,14.9.9,22.4,1.3,14.9.8,22.4,1.1,14.9.6,22.4.8,14.9.4,22.4.6,15,.2,22.4.3,15,0,22.5,0,14.9,0,22.4-.2,14.9-.3,22.4-.5,14.9-.4,22.4-.7,14.9-.6,22.4-1,14.9-.8,22.4-1.2,14.9-1,22.3-1.5,15-1.1,22.4-1.8,14.9-1.3,22.3-2,7.1-.7,10.7-1.1,3.6-.4,5.4-.5,1.7-.2,2.6-.3.9,0,1.3-.1,1.3,0,1.8-.4l-.6.2c4.3-.5,8.6-1,12.8-1.6s8.5-1.1,12.8-1.7,2.4-.3,3.6-.5,1.2-.1,1.8-.2.6,0,.9-.1.3,0,.5,0,.2,0,.4,0c.2,0,.4-.1.5-.3.1-.1.2-.2.3-.4l-.9.6c4.3-.7,8.5-1.4,12.8-2.2s8.5-1.5,12.7-2.2,2.4-.4,3.6-.6,1.2-.2,1.8-.3.6,0,.8-.1.3,0,.5,0,.2,0,.3,0c.3,0,.4-.3.6-.5l-.6.4c7.5-1.3,15.1-2.7,22.6-4.1s4.3-.8,6.4-1.2.8-1.3.8-1.9,0-.9-.3-1.3-.3-.6-.6-.5h0Z"/>
  </g>
</svg>