<?xml version="1.0" encoding="UTF-8"?>
<svg id="Layer_2" data-name="Layer 2" xmlns="http://www.w3.org/2000/svg" viewBox="0 0 1797.6 426.44">
  <defs>
    <style>
      .cls-1 {
        fill: #c29678;
      }

      .cls-2 {
        stroke-width: 7px;
      }

      .cls-2, .cls-3 {
        fill: none;
        stroke: #c29678;
        stroke-miterlimit: 10;
      }

      .cls-3 {
        stroke-width: 6px;
      }
    </style>
  </defs>
  <g id="Layer_1-2" data-name="Layer 1">
    <g>
      <g id="Layer_3" data-name="Layer 3">
        <g id="clone">
          <path class="cls-1" d="M844.17,155.58c-10.74-8.93-23.67-14.56-34.45-23.45-12.28-10.08-6.64-25.26-3.34-29.53,6.91-10.34,24.11-29.61,29.79-36.7,25.35-32.34,25.74-44.31,26.53-49.19-.18-7.96,6,3.78,8.48,6.26,34.72,33.62,37.19,45.93,39.74,51.12,4.09,9.42,3.92,13.64,5.06,22.05,1.41,8.32.18,11.48-.84,16.1-4.84,21.91-19.98,35.47-25.3,40.09-8.05,8.01-11.62.57-11.09-1.76.31-2.07,1.28-27.9,1.06-33.13-.18-2.73-7.17-7.74-10.52-7.88-7.83.09-8.49,8.45-8.49,13.77.84,9.81,1.8,61.21,1.89,64.46.04,3.39-3.56,20.86-4.66,26.14,1.14.92,5.7,2.72,4.18,6.86-2.02,4.97,4,3.31,7.08.48,66.05-69.22,92.89-12.14,95.35-6.69,12.94,28.07-32.91,92.62-40.44,95.48-19.76,8.27-37.71-7.92-65.92,8.54-3.12,2.33-8.23,5.15-8.84,11.97-1.72,17.64.13,47.52,2.33,58.39.44,2.11,2.2,3.65,4.36,3.83,3.7.26,8.8.48,9.64-2.02,41.49-38.81,62.04-73.92,66.09-76.87,24.03-25.74,33.97-55.66,35.55-60.19,14.56-49.81-6.51-59.23-12.06-64.9h.09c-.31-.31-.62-.57-.97-.79-34.06-21.17-63.45.18-77.31,12.54-3.08,2.73-7.96.53-7.96-3.61,0-6.95,0-15.66.04-21.39,0-1.8,1.06-3.52,2.68-4.27,5.41-2.46,12.54-8.71,12.54-8.71,12.85-10.43,22.71-18.57,30.71-32.39,10.38-17.25,10.6-30.98,8.62-40-2.51-24.25-39.73-64.02-51.31-81.45-.04-.09-.13-.18-.18-.26-2.16-2.73-2.2-2.82-5.24-6.6h0c-2.73-3.52-8.32-1.8-8.62,2.64-.31,4.27-.79,8.8-1.54,12.67-4.18,31.29-42.42,64.55-46.64,68.64-.09.09-.18.18-.26.31-23.67,26.05-12.01,42.95-10.25,45.63.09.18.18.31.31.44,19.49,24.99,44,19.71,52.32,48.53.09.31.18.62.18.97.26,3.08.09,11.79,0,20.28,0,3.34-3.34,5.63-6.47,4.44-8.01-3.04-20.37-10.34-29.31-14.65-33.79-16.28-44.66-11.62-55.44-10.87-.44,0-.92.13-1.32.26-31.81,11.35-24.26,38.7-22.79,45.54.11.52.25.87,1.11,3.44,9.37,35.16,80.47,116.2,84.96,122.49h3.12l3.19-.17c0-.66-1.74-2.38-2-3-.66-1.63-2-4-7-11-14-15-65.78-87.13-67.06-91.17-26.97-38.99-4.53-50.51-.48-55.75,17.16-13.16,31.2-3.48,43.83,0,8.1,1.67,49.28,24.91,58.92,22.88q1.69-.29,2.93-.29c3.89-44.86-8.11-52.58-10.24-54.67l-4.36-3.92ZM866.43,144.93c-1.06-12.06-.48-28.16-.48-29.09-.18-2.77,1.76-2.55,2.2-2.55,2.73.31,5.06,2.38,5.46,2.73s2.02,1.5,2.24,3.7c.18.92,0,8.8,0,9.81,0,10.82-2.24,15.93-2.73,17.2-1.32,3.43-1.1,4.22-1.1,5.41.4,3.67-1.94,3.12-2.64,3.04-2.33-.66-2.86-9.72-2.9-10.21l-.04-.04ZM915.5,321.65c.09.84-.09,1.98-.66,3.08-.57,1.8-36.61,43.47-52.49,58.87-5.63,5.19-6.42.57-6.07-2.95,0-1.54,0-42.11-.09-47.08,1.23-8.93,12.1-13.64,17.64-13.55,2.9-.09,37.8-.04,41.85-.09,0,0-.18.84-.22,1.72h.04Z"/>
          <path class="cls-1" d="M856.31,380.61v-37.49c-.04,11.92,0,31.02,0,37.49Z"/>
          <path class="cls-1" d="M862.16,383.78c-.53.48-1.01.84-1.45,1.14.44-.31.92-.7,1.45-1.14Z"/>
          <path class="cls-1" d="M859.66,385.49s-.26.13-.4.18c.13,0,.26-.13.4-.18Z"/>
          <path class="cls-1" d="M915.5,322.09v-.09c0-.62.13-1.19.26-2.02,0,0-.18.84-.22,1.72v.44l-.04-.04Z"/>
          <path class="cls-1" d="M863.04,382.94s.09-.09.18-.13c5.02-4.66,16.15-16.81,26.89-28.91-9.68,10.91-20.11,22.22-27.06,29.04Z"/>
          <path class="cls-1" d="M915.06,324.2c.13-.26.22-.57.31-.88-.09.26-.18.57-.31.88Z"/>
          <path class="cls-1" d="M862.52,177.14c.13,5.72.18,9.81.22,10.65,0-1.1-.09-5.1-.22-10.65Z"/>
          <path class="cls-1" d="M853.28,164.69s-.22-.31-.35-.44c.13.13.22.26.35.44Z"/>
          <path class="cls-1" d="M863.57,112.2c-.26.35-.53.7-.7,1.06.22-.4.48-.75.7-1.06Z"/>
          <path class="cls-1" d="M862.52,190.21s-.04.44-.09.66c0-.22.09-.44.09-.66Z"/>
          <path class="cls-1" d="M892.61,149.86c-.48.44-.84.79-1.28,1.14.44-.4.84-.75,1.28-1.14Z"/>
          <path class="cls-1" d="M885.09,155.63s-.18.09-.31.09c.09,0,.18-.09.31-.09Z"/>
          <path class="cls-1" d="M864.67,111.05s.09-.04.09-.09c0,0-.09.04-.09.09Z"/>
          <path class="cls-1" d="M859.3,188.72c0,3.39-.09,7-.22,10.52.22-3.92.26-7.39.22-10.52Z"/>
          <polygon class="cls-1" points="874.62 116.99 874.57 116.95 874.62 116.99 874.62 116.99"/>
          <path class="cls-1" d="M866.39,144.49c0-.31-.04-.62-.09-.92,0,.31.04.62.09.92Z"/>
          <path class="cls-1" d="M874.57,142.07c-.44,1.85-.88,3.12-1.19,3.92.4-1.01.79-2.24,1.19-3.92Z"/>
          <path class="cls-1" d="M872.06,154.53s0,.04-.04.09c0,0,0-.04.04-.09Z"/>
          <path class="cls-1" d="M873.16,146.61s.13-.31.22-.48c-.09.22-.13.35-.22.48Z"/>
          <path class="cls-1" d="M925,320.42l21.69,2.9h.26l46.11,3.43,39.51,3.21,36.48,3.21,33.18,3.34,29.31,3.43,30.08,5.55s-.2-2.12-.12-2.07l16.76,3.08,7.35.99c.31.04.69,0,1,0l17,2h10l-15-3s-4.91-1-5-1l-5-1s-9.87-1.96-10-2l-34-8-10-2-29.38-3.8-29.75-3.39-36.4-1.78-39.51-3.26-46.55-3.34h-.31l-19.76-2.73c-1.67-.22-3.34.44-4.4,1.76l-3.61,4.44h.04Z"/>
        </g>
      </g>
      <path class="cls-2" d="M1144.13,338c41.33,9.38,82.76,18.4,124.62,25.11,42.15,6.75,84.75,11.78,127.33,14.85,42.61,3.08,85.52,3.81,128.23,3.91,43.04.1,86.09-1.15,129.02-4.22,42.89-3.07,85.66-7.96,128.07-15.12,5.2-.88,10.39-1.79,15.57-2.73"/>
      <path class="cls-3" d="M811.63,332.5c9,11.28,20.48,27.02,32,47,8.48,14.72,12.73,22.08,12,25-7.01,28.2-226.18-3.89-280-11-130.66-17.26-322.38-24.05-575,30"/>
    </g>
  </g>
</svg>