<?xml version="1.0" encoding="UTF-8"?>
<svg id="Layer_2" data-name="Layer 2" xmlns="http://www.w3.org/2000/svg" viewBox="0 0 1441 353">
  <defs>
    <style>
      .cls-1 {
        fill: #c29678;
      }

      .cls-2 {
        fill: #f5efe7;
      }
    </style>
  </defs>
  <g id="Layer_1-2" data-name="Layer 1">
    <rect class="cls-1" width="1441" height="353"/>
    <circle class="cls-2" cx="80" cy="79" r="49.5"/>
    <path class="cls-2" d="M287.5,326c0-36.73-29.77-66.5-66.5-66.5s-66.5,29.77-66.5,66.5c0,9.62,2.06,18.75,5.73,27h121.54c3.67-8.25,5.73-17.38,5.73-27Z"/>
    <circle class="cls-2" cx="327" cy="159" r="17.5"/>
    <circle class="cls-2" cx="426" cy="59" r="19.5"/>
    <circle class="cls-2" cx="487.5" cy="217.5" r="42"/>
    <circle class="cls-2" cx="980" cy="267" r="38.5"/>
    <path class="cls-2" d="M1039.84,0h-106.69c-14.57,14.01-23.66,33.69-23.66,55.5,0,42.53,34.47,77,77,77s77-34.47,77-77c0-21.81-9.08-41.49-23.66-55.5Z"/>
    <circle class="cls-2" cx="1202.5" cy="153.5" r="25"/>
    <path class="cls-2" d="M1440.5,192.5c-62.41,0-113,50.59-113,113,0,16.97,3.75,33.06,10.45,47.5h102.55v-160.5Z"/>
  </g>
</svg>