<?xml version="1.0" encoding="UTF-8"?>
<svg id="Layer_2" data-name="Layer 2" xmlns="http://www.w3.org/2000/svg" viewBox="0 0 1882.95 902">
  <defs>
    <style>
      .cls-1 {
        letter-spacing: 0em;
      }

      .cls-2 {
        letter-spacing: .01em;
      }

      .cls-3 {
        letter-spacing: 0em;
      }

      .cls-4 {
        letter-spacing: 0em;
      }

      .cls-5 {
        letter-spacing: 0em;
      }

      .cls-6 {
        letter-spacing: -.01em;
      }

      .cls-7 {
        letter-spacing: -.02em;
      }

      .cls-8 {
        letter-spacing: 0em;
      }

      .cls-9 {
        letter-spacing: 0em;
      }

      .cls-10 {
        letter-spacing: -.03em;
      }

      .cls-11 {
        letter-spacing: .02em;
      }

      .cls-12 {
        letter-spacing: .02em;
      }

      .cls-13 {
        letter-spacing: 0em;
      }

      .cls-14 {
        letter-spacing: 0em;
      }

      .cls-15 {
        letter-spacing: 0em;
      }

      .cls-16 {
        letter-spacing: -.01em;
      }

      .cls-17 {
        letter-spacing: 0em;
      }

      .cls-18 {
        letter-spacing: -.01em;
      }

      .cls-19 {
        fill: #7ba6c2;
      }

      .cls-20 {
        fill: #fff;
        font-family: MyriadPro-Regular, 'Myriad Pro';
        font-size: 22px;
      }

      .cls-21 {
        letter-spacing: 0em;
      }

      .cls-22 {
        letter-spacing: -.03em;
      }

      .cls-23 {
        letter-spacing: 0em;
      }
    </style>
  </defs>
  <g id="Layer_1-2" data-name="Layer 1">
    <g>
      <circle class="cls-19" cx="118.5" cy="797.5" r="104.5"/>
      <text class="cls-20" transform="translate(58.71 806.99)"><tspan class="cls-16" x="0" y="0">C</tspan><tspan class="cls-23" x="12.52" y="0">o</tspan><tspan class="cls-17" x="24.6" y="0">n</tspan><tspan class="cls-13" x="36.72" y="0">t</tspan><tspan x="43.87" y="0">e</tspan><tspan class="cls-3" x="54.89" y="0">n</tspan><tspan class="cls-15" x="67.01" y="0">t plan</tspan></text>
    </g>
    <g>
      <circle class="cls-19" cx="318.5" cy="655.5" r="73.5"/>
      <text class="cls-20" transform="translate(267.46 660.36)"><tspan class="cls-5" x="0" y="0">M</tspan><tspan class="cls-23" x="17.82" y="0">ål</tspan><tspan class="cls-13" x="33.62" y="0">g</tspan><tspan x="45.78" y="0">ruppe</tspan></text>
    </g>
    <g>
      <circle class="cls-19" cx="223" cy="438" r="95"/>
      <text class="cls-20" transform="translate(153.71 444.99)"><tspan class="cls-7" x="0" y="0">V</tspan><tspan class="cls-23" x="11.92" y="0">isuel b</tspan><tspan class="cls-1" x="71.3" y="0">r</tspan><tspan class="cls-23" x="78.39" y="0">anding</tspan></text>
    </g>
    <g>
      <circle class="cls-19" cx="533.5" cy="513.5" r="119.5"/>
      <text class="cls-20" transform="translate(453.71 518.99)"><tspan class="cls-16" x="0" y="0">C</tspan><tspan class="cls-23" x="12.52" y="0">o</tspan><tspan class="cls-17" x="24.6" y="0">n</tspan><tspan class="cls-13" x="36.72" y="0">t</tspan><tspan x="43.87" y="0">e</tspan><tspan class="cls-3" x="54.89" y="0">n</tspan><tspan class="cls-15" x="67.01" y="0">t c</tspan><tspan class="cls-21" x="88.81" y="0">r</tspan><tspan x="95.79" y="0">e</tspan><tspan class="cls-3" x="106.81" y="0">a</tspan><tspan class="cls-15" x="117.32" y="0">tion</tspan></text>
    </g>
    <g>
      <circle class="cls-19" cx="115" cy="202" r="115"/>
      <text class="cls-20" transform="translate(35.71 210.99)"><tspan class="cls-2" x="0" y="0">I</tspan><tspan class="cls-23" x="5.48" y="0">ndhold &amp; desi</tspan><tspan class="cls-14" x="131.91" y="0">g</tspan><tspan x="144.08" y="0">n</tspan></text>
    </g>
    <g>
      <circle class="cls-19" cx="1733.95" cy="616.98" r="149"/>
      <text class="cls-20" transform="translate(1615.66 625.96)"><tspan x="0" y="0">Lær p</tspan><tspan class="cls-18" x="51.77" y="0">r</tspan><tspan x="58.74" y="0">odukt </tspan><tspan class="cls-6" x="117.61" y="0">f</tspan><tspan class="cls-23" x="123.75" y="0">o</tspan><tspan class="cls-13" x="135.83" y="0">t</tspan><tspan x="142.98" y="0">o</tspan><tspan class="cls-14" x="155.05" y="0">g</tspan><tspan class="cls-1" x="167.22" y="0">r</tspan><tspan class="cls-23" x="174.3" y="0">a</tspan><tspan class="cls-6" x="184.91" y="0">f</tspan><tspan x="191.05" y="0">e</tspan><tspan class="cls-8" x="202.07" y="0">r</tspan><tspan x="209.35" y="0">ing</tspan></text>
    </g>
    <g>
      <circle class="cls-19" cx="1458" cy="434" r="164"/>
      <text class="cls-20" transform="translate(1329.71 433.99)"><tspan x="0" y="0">Lær meda</tspan><tspan class="cls-8" x="91.63" y="0">r</tspan><tspan x="98.91" y="0">bejder po</tspan><tspan class="cls-11" x="187.68" y="0">r</tspan><tspan x="195.4" y="0">t</tspan><tspan class="cls-9" x="202.68" y="0">r</tspan><tspan x="209.77" y="0">æt</tspan><tspan class="cls-13" x="234.05" y="0">t</tspan><tspan class="cls-23" x="241.2" y="0">er</tspan></text>
    </g>
    <g>
      <circle class="cls-19" cx="1733.5" cy="127.5" r="127.5"/>
      <text class="cls-20" transform="translate(1620.71 132.99)"><tspan class="cls-10" x="0" y="0">F</tspan><tspan class="cls-23" x="10.03" y="0">o</tspan><tspan class="cls-4" x="22.11" y="0">t</tspan><tspan class="cls-23" x="29.26" y="0">o</tspan><tspan class="cls-13" x="41.34" y="0">g</tspan><tspan class="cls-9" x="53.5" y="0">r</tspan><tspan x="60.59" y="0">a</tspan><tspan class="cls-6" x="71.19" y="0">f</tspan><tspan x="77.33" y="0">e</tspan><tspan class="cls-8" x="88.35" y="0">r</tspan><tspan x="95.63" y="0">ings </tspan><tspan class="cls-13" x="138.67" y="0">t</tspan><tspan class="cls-23" x="145.81" y="0">e</tspan><tspan class="cls-12" x="156.84" y="0">k</tspan><tspan x="167.53" y="0">ni</tspan><tspan class="cls-12" x="184.89" y="0">k</tspan><tspan x="195.58" y="0">ker</tspan></text>
    </g>
    <g>
      <circle class="cls-19" cx="1705.5" cy="349.5" r="73.5"/>
      <text class="cls-20" transform="translate(1691.46 355.36)"><tspan class="cls-22" x="0" y="0">L</tspan><tspan class="cls-14" x="9.79" y="0">y</tspan><tspan x="20.02" y="0">s</tspan></text>
    </g>
    <g>
      <circle class="cls-19" cx="1490" cy="775" r="95"/>
      <text class="cls-20" transform="translate(1457.71 782.99)"><tspan class="cls-7" x="0" y="0">V</tspan><tspan class="cls-23" x="11.92" y="0">in</tspan><tspan class="cls-12" x="29.28" y="0">k</tspan><tspan x="39.97" y="0">ler</tspan></text>
    </g>
  </g>
</svg>